<svg xmlns="http://www.w3.org/2000/svg" viewBox="0 0 221.9 68.84"><defs><style>.cls-1{fill:#2b404d;}.cls-2{fill:#344e5d;}.cls-3{fill:#df5a49;}.cls-4{fill:#43b29d;}.cls-5{fill:#fff;}</style></defs><title>glasses</title><g id="Calque_2" data-name="Calque 2"><g id="Layer_1" data-name="Layer 1"><g id="_Groupe_" data-name="&lt;Groupe&gt;"><g id="_Groupe_2" data-name="&lt;Groupe&gt;"><g id="_Groupe_3" data-name="&lt;Groupe&gt;"><path id="_Tracé_" data-name="&lt;Tracé&gt;" class="cls-1" d="M24.25,64.65,7,17.25v27.3a3.52,3.52,0,0,1-3.52,3.52h0A3.53,3.53,0,0,1,0,44.55V11A10.42,10.42,0,0,1,13.9,1.19l11.19,7Z"/><path id="_Tracé_2" data-name="&lt;Tracé&gt;" class="cls-1" d="M219.72,64.06l-17.21-47.4V44A3.53,3.53,0,0,1,199,47.48h0A3.53,3.53,0,0,1,195.46,44V10.43A10.42,10.42,0,0,1,209.37.61l11.19,7Z"/><path id="_Tracé_3" data-name="&lt;Tracé&gt;" class="cls-2" d="M217.71,6.35H28.45a4.2,4.2,0,0,0-4.2,4.19V64.65a4.2,4.2,0,0,0,4.2,4.19h71.78A6.28,6.28,0,0,0,106,65.17l10.82-23.54a6.94,6.94,0,0,1,12.61,0L140.2,65.17a6.29,6.29,0,0,0,5.72,3.67h71.79a4.2,4.2,0,0,0,4.19-4.19V10.54A4.2,4.2,0,0,0,217.71,6.35Z"/><rect id="_Rectangle_" data-name="&lt;Rectangle&gt;" class="cls-3" x="148.97" y="18.27" width="61.51" height="39.24" rx="5.07" ry="5.07"/><rect id="_Rectangle_2" data-name="&lt;Rectangle&gt;" class="cls-4" x="35.67" y="18.27" width="61.51" height="39.24" rx="5.07" ry="5.07" transform="translate(132.85 75.78) rotate(180)"/><path id="_Tracé_4" data-name="&lt;Tracé&gt;" class="cls-5" d="M26.71,11.55h0a.76.76,0,0,1-.75-.76S26,7.54,30.67,7.54a.76.76,0,1,1,0,1.52c-3,0-3.19,1.57-3.2,1.75A.76.76,0,0,1,26.71,11.55Z"/><path id="_Tracé_5" data-name="&lt;Tracé&gt;" class="cls-5" d="M215.94,9.14H35.66a.77.77,0,0,1,0-1.53H215.94a.77.77,0,0,1,0,1.53Z"/><path id="_Tracé_6" data-name="&lt;Tracé&gt;" class="cls-5" d="M23.22,8.81a.77.77,0,0,1-.4-.12L13.91,3.23a.76.76,0,1,1,.8-1.3l8.91,5.46a.76.76,0,0,1,.25,1A.75.75,0,0,1,23.22,8.81Z"/><path id="_Tracé_7" data-name="&lt;Tracé&gt;" class="cls-5" d="M5.72,4.15a.77.77,0,0,1-.45-1.38,8,8,0,0,1,6.44-1.59.76.76,0,0,1,.55.93.77.77,0,0,1-.93.55A6.56,6.56,0,0,0,6.17,4,.74.74,0,0,1,5.72,4.15Z"/><path id="_Tracé_8" data-name="&lt;Tracé&gt;" class="cls-5" d="M26.11,62.62a.77.77,0,0,1-.77-.77V14.08a.77.77,0,0,1,.77-.76.76.76,0,0,1,.76.76V61.85A.76.76,0,0,1,26.11,62.62Z"/><g id="_Groupe_4" data-name="&lt;Groupe&gt;"><path id="_Tracé_9" data-name="&lt;Tracé&gt;" class="cls-5" d="M172.16,47.08a.78.78,0,0,1-.54-.23.76.76,0,0,1,0-1.08L187.8,29.59a.76.76,0,0,1,1.08,1.08L172.7,46.85A.76.76,0,0,1,172.16,47.08Z"/><path id="_Tracé_10" data-name="&lt;Tracé&gt;" class="cls-5" d="M169.36,41a.75.75,0,0,1-.54-.22.76.76,0,0,1,0-1.08l9.81-9.81a.76.76,0,1,1,1.08,1.08l-9.81,9.81A.75.75,0,0,1,169.36,41Z"/><path id="_Tracé_11" data-name="&lt;Tracé&gt;" class="cls-5" d="M181.91,46.63a.75.75,0,0,1-.54-.22.76.76,0,0,1,0-1.08l9.81-9.81a.76.76,0,1,1,1.08,1.08l-9.81,9.81A.76.76,0,0,1,181.91,46.63Z"/></g><g id="_Groupe_5" data-name="&lt;Groupe&gt;"><path id="_Tracé_12" data-name="&lt;Tracé&gt;" class="cls-5" d="M56.55,47.08A.77.77,0,0,1,56,45.77L72.19,29.59a.76.76,0,0,1,1.08,1.08L57.1,46.85A.78.78,0,0,1,56.55,47.08Z"/><path id="_Tracé_13" data-name="&lt;Tracé&gt;" class="cls-5" d="M53.75,41a.76.76,0,0,1-.54-1.3L63,29.85a.76.76,0,1,1,1.08,1.08l-9.81,9.81A.75.75,0,0,1,53.75,41Z"/><path id="_Tracé_14" data-name="&lt;Tracé&gt;" class="cls-5" d="M66.3,46.63a.75.75,0,0,1-.54-.22.76.76,0,0,1,0-1.08l9.81-9.81a.76.76,0,0,1,1.08,1.08l-9.81,9.81A.75.75,0,0,1,66.3,46.63Z"/></g></g></g></g></g></g></svg>