<svg xmlns="http://www.w3.org/2000/svg" viewBox="0 0 595.28 434.85"><defs><style>.cls-1{isolation:isolate;}.cls-2{opacity:0.2;mix-blend-mode:screen;}.cls-3{fill:#3c5a6b;}.cls-4{fill:#293e4a;}.cls-13,.cls-5{fill:#d1d3d4;}.cls-5{mix-blend-mode:multiply;}.cls-6{fill:#3f4040;}.cls-7{fill:#4e4f4f;}.cls-8{fill:#fff;}.cls-9{fill:#43b29d;}.cls-10{fill:#a13d30;}.cls-11{fill:#f7d977;}.cls-12{fill:#c84b3b;}.cls-14{fill:#df5a49;}.cls-15{fill:#efb64c;}.cls-16{fill:#f37363;}.cls-17{fill:#e3ac43;}.cls-18{fill:#efc94d;}.cls-19{fill:#fcdb6f;}.cls-20{fill:#c6d4dc;}.cls-21{fill:#d97234;}.cls-22{fill:#e27a3e;}.cls-23{fill:#2b404d;}.cls-24{fill:#344e5d;}</style></defs><title>illustration</title><g class="cls-1"><g id="Calque_2" data-name="Calque 2"><g id="Layer_1" data-name="Layer 1"><g id="_Groupe_" data-name="&lt;Groupe&gt;"><g id="_Groupe_2" data-name="&lt;Groupe&gt;" class="cls-2"><line id="_Tracé_" data-name="&lt;Tracé&gt;" class="cls-3" x1="297.63" y1="389.87" y2="96.99"/><line id="_Tracé_2" data-name="&lt;Tracé&gt;" class="cls-3" x1="595.28" y1="96.98" x2="297.63" y2="389.87"/><line id="_Tracé_3" data-name="&lt;Tracé&gt;" class="cls-3" x1="297.63" y1="389.87" x2="595.28" y2="307.55"/></g><g id="_Groupe_3" data-name="&lt;Groupe&gt;"><line id="_Tracé_4" data-name="&lt;Tracé&gt;" class="cls-4" y1="334.59" x2="595.28" y2="334.59"/></g><g id="_Groupe_4" data-name="&lt;Groupe&gt;"><g id="_Groupe_5" data-name="&lt;Groupe&gt;"><path id="_Tracé_5" data-name="&lt;Tracé&gt;" class="cls-5" d="M415.62,416.32c0,10.23-59.36,18.53-132.59,18.53s-132.58-8.3-132.58-18.53S209.81,397.79,283,397.79,415.62,406.08,415.62,416.32Z"/><ellipse id="_Tracé_6" data-name="&lt;Tracé&gt;" class="cls-5" cx="309.62" cy="395.28" rx="225" ry="29.66"/></g><g id="_Groupe_6" data-name="&lt;Groupe&gt;"><circle id="_Tracé_7" data-name="&lt;Tracé&gt;" class="cls-6" cx="305.04" cy="187.09" r="116.14" transform="translate(-42.95 270.49) rotate(-45)"/><path id="_Tracé_transparent_" data-name="&lt;Tracé transparent&gt;" class="cls-7" d="M305,281.1a94,94,0,1,1,94-94A94.11,94.11,0,0,1,305,281.1Zm0-186.49a92.48,92.48,0,1,0,92.48,92.48A92.59,92.59,0,0,0,305,94.61Z"/><path id="_Tracé_transparent_2" data-name="&lt;Tracé transparent&gt;" class="cls-7" d="M305,270.53a83.44,83.44,0,1,1,83.44-83.44A83.53,83.53,0,0,1,305,270.53Zm0-165.35A81.92,81.92,0,1,0,387,187.09,82,82,0,0,0,305,105.18Z"/><g id="_Groupe_7" data-name="&lt;Groupe&gt;"><path id="_Tracé_8" data-name="&lt;Tracé&gt;" class="cls-8" d="M202.46,236.47a1.15,1.15,0,0,1-1.05-.66A115,115,0,0,1,193,210.94,114.24,114.24,0,0,1,310.2,73.07a1.15,1.15,0,1,1-.11,2.3,112.55,112.55,0,0,0-28.78,2.36,111.84,111.84,0,0,0-86,132.72,112.48,112.48,0,0,0,8.2,24.38,1.16,1.16,0,0,1-.55,1.53A1.09,1.09,0,0,1,202.46,236.47Z"/><path id="_Tracé_9" data-name="&lt;Tracé&gt;" class="cls-8" d="M209.84,249.74a1.16,1.16,0,0,1-1-.53c-1.73-2.65-3.36-5.41-4.85-8.21a1.15,1.15,0,0,1,.47-1.56,1.17,1.17,0,0,1,1.57.47c1.46,2.74,3.06,5.45,4.74,8.05a1.14,1.14,0,0,1-.34,1.59A1.1,1.1,0,0,1,209.84,249.74Z"/><path id="_Tracé_10" data-name="&lt;Tracé&gt;" class="cls-8" d="M326.27,77.51a1,1,0,0,1-.24,0c-3.3-.71-6.67-1.26-10-1.66a1.16,1.16,0,0,1,.28-2.3c3.41.41,6.85,1,10.22,1.7a1.15,1.15,0,0,1-.24,2.28Z"/></g><path id="_Tracé_transparent_3" data-name="&lt;Tracé transparent&gt;" class="cls-9" d="M305,0C201.71,0,118,83.76,118,187.09S201.71,374.18,305,374.18s187.09-83.76,187.09-187.09S408.37,0,305,0Zm78.18,90.23a44.8,44.8,0,1,1-16.4,61.19A44.8,44.8,0,0,1,383.22,90.23ZM226.86,284a44.8,44.8,0,1,1,16.4-61.2A44.79,44.79,0,0,1,226.86,284Zm16.4-132.54a44.8,44.8,0,1,1-16.4-61.19A44.8,44.8,0,0,1,243.26,151.42ZM305,348a44.8,44.8,0,1,1,44.8-44.8A44.8,44.8,0,0,1,305,348ZM292.71,187.09A12.33,12.33,0,1,1,305,199.42,12.32,12.32,0,0,1,292.71,187.09ZM305,115.75A44.8,44.8,0,1,1,349.84,71,44.79,44.79,0,0,1,305,115.75ZM383.22,284a44.8,44.8,0,1,1,61.19-16.4A44.8,44.8,0,0,1,383.22,284Z"/><g id="_Groupe_8" data-name="&lt;Groupe&gt;"><path id="_Tracé_11" data-name="&lt;Tracé&gt;" class="cls-8" d="M235.48,166.83a1.15,1.15,0,0,1-.77-2,50.78,50.78,0,0,0,5.7-5.94,1.16,1.16,0,0,1,1.86,1.38,53,53,0,0,1-6,6.29A1.15,1.15,0,0,1,235.48,166.83Z"/><path id="_Tracé_12" data-name="&lt;Tracé&gt;" class="cls-8" d="M245.61,155.05a1.19,1.19,0,0,1-.37-.06,1.16,1.16,0,0,1-.73-1.46c0-.06.11-.24.26-.55,3.86-7.65,14.73-34.37-7.32-57.07a1.16,1.16,0,0,1,1.66-1.61c23.11,23.79,11.75,51.73,7.72,59.72l-.15.3A1.16,1.16,0,0,1,245.61,155.05Z"/></g><g id="_Groupe_9" data-name="&lt;Groupe&gt;"><path id="_Tracé_13" data-name="&lt;Tracé&gt;" class="cls-8" d="M335.42,109.32a1.15,1.15,0,0,1-.77-2,49.92,49.92,0,0,0,5.7-5.94,1.15,1.15,0,1,1,1.85,1.38,51.61,51.61,0,0,1-6,6.29A1.17,1.17,0,0,1,335.42,109.32Z"/><path id="_Tracé_14" data-name="&lt;Tracé&gt;" class="cls-8" d="M334.46,35.48a1.16,1.16,0,0,1-.7-.24l-2.82-2.15a1.15,1.15,0,0,1,1.4-1.83l2.82,2.15a1.14,1.14,0,0,1,.22,1.61A1.16,1.16,0,0,1,334.46,35.48Z"/><path id="_Tracé_15" data-name="&lt;Tracé&gt;" class="cls-8" d="M345.55,97.53a1.18,1.18,0,0,1-.37,0,1.16,1.16,0,0,1-.73-1.46,5.15,5.15,0,0,1,.26-.56c3.85-7.65,14.72-34.37-7.32-57.07a1.16,1.16,0,0,1,1.66-1.61c23.1,23.79,11.75,51.73,7.72,59.72l-.15.3A1.16,1.16,0,0,1,345.55,97.53Z"/></g><g id="_Groupe_10" data-name="&lt;Groupe&gt;"><path id="_Tracé_16" data-name="&lt;Tracé&gt;" class="cls-8" d="M235,282.83a1.17,1.17,0,0,1-.86-.39,1.15,1.15,0,0,1,.1-1.63,50.78,50.78,0,0,0,5.7-5.94,1.14,1.14,0,0,1,1.61-.24,1.16,1.16,0,0,1,.24,1.62,52.43,52.43,0,0,1-6,6.29A1.17,1.17,0,0,1,235,282.83Z"/><path id="_Tracé_17" data-name="&lt;Tracé&gt;" class="cls-8" d="M234.08,209a1.14,1.14,0,0,1-.7-.24l-2.82-2.15a1.16,1.16,0,1,1,1.4-1.84l2.82,2.15a1.16,1.16,0,0,1-.7,2.08Z"/><path id="_Tracé_18" data-name="&lt;Tracé&gt;" class="cls-8" d="M245.16,271a1.16,1.16,0,0,1-1.09-1.52c0-.06.1-.24.25-.55,3.86-7.65,14.73-34.37-7.31-57.07a1.15,1.15,0,0,1,1.65-1.61c23.11,23.79,11.75,51.73,7.72,59.72a3,3,0,0,0-.14.3A1.16,1.16,0,0,1,245.16,271Z"/></g><g id="_Groupe_11" data-name="&lt;Groupe&gt;"><path id="_Tracé_19" data-name="&lt;Tracé&gt;" class="cls-8" d="M126.2,230.2a1.16,1.16,0,0,1-1.13-.89,186.06,186.06,0,0,1-4.84-42.22A185,185,0,0,1,352.37,8.4a1.15,1.15,0,0,1,.82,1.41,1.16,1.16,0,0,1-1.41.82,183,183,0,0,0-46.74-6c-100.63,0-182.5,81.87-182.5,182.5a183.67,183.67,0,0,0,4.78,41.69,1.16,1.16,0,0,1-.86,1.39Z"/><path id="_Tracé_20" data-name="&lt;Tracé&gt;" class="cls-8" d="M133.43,253.8a1.14,1.14,0,0,1-1.08-.74c-1.83-4.79-3.48-9.72-4.9-14.65a1.14,1.14,0,0,1,.79-1.42,1.15,1.15,0,0,1,1.43.78c1.4,4.87,3,9.73,4.84,14.46a1.17,1.17,0,0,1-.67,1.49A1.24,1.24,0,0,1,133.43,253.8Z"/><path id="_Tracé_21" data-name="&lt;Tracé&gt;" class="cls-8" d="M377,19.54a1.28,1.28,0,0,1-.47-.1c-5-2.25-10.22-4.29-15.42-6.07a1.15,1.15,0,1,1,.75-2.18c5.27,1.8,10.52,3.86,15.61,6.14a1.16,1.16,0,0,1-.47,2.21Z"/></g><circle id="_Tracé_22" data-name="&lt;Tracé&gt;" class="cls-3" cx="305.04" cy="187.09" r="44.8" transform="translate(-25.73 50.54) rotate(-9.09)"/><path id="_Tracé_23" data-name="&lt;Tracé&gt;" class="cls-6" d="M292.71,187.09A12.33,12.33,0,1,1,305,199.42,12.32,12.32,0,0,1,292.71,187.09Z"/></g><g id="_Groupe_12" data-name="&lt;Groupe&gt;"><path id="_Tracé_24" data-name="&lt;Tracé&gt;" class="cls-10" d="M269.71,137l183.13-7.93a14,14,0,0,1,7.49-.22c3.52,1.1,4.84,5.29,4.84,5.29s4.51-2.36,8.15-1.1c5.72,2,6.16,5.5,6.16,5.5a17.13,17.13,0,0,1,7.92-1.1c6,.88,8.15,6.38,8.15,6.38s6.31-2.35,11,0,9.69,9,9.69,9l-189.61,9.35Z"/><path id="_Tracé_25" data-name="&lt;Tracé&gt;" class="cls-11" d="M497.16,134.09a14.71,14.71,0,0,0-1.49.09c0-.13,0-.25,0-.38a13.49,13.49,0,0,0-10.32-13.11,13.46,13.46,0,0,0-19.62-6.61,12.27,12.27,0,0,0-8.93-4.32,12.3,12.3,0,0,0-18.7-8.72,12.31,12.31,0,0,0-18.66-9.47,12.29,12.29,0,0,0-19.3.49A12.31,12.31,0,0,0,378,90a12.31,12.31,0,0,0-17.09,3.74,12.32,12.32,0,0,0-20.13,9.54c0,.43,0,.87.07,1.29a12.28,12.28,0,0,0-14.49,1.05,13.49,13.49,0,0,0-21,9.37,12.16,12.16,0,0,0-19.5,9.71c0,.2,0,.4,0,.6A11.74,11.74,0,0,0,274.4,137a10.14,10.14,0,0,0,.07,1.23c-.82.53-1.24.82-1.24.82a28,28,0,0,0,2.68,3.69,11.67,11.67,0,0,0,3.82,4.08,65.56,65.56,0,0,0,13.46,9.84c14.67,8.22,74,15.85,110.93,14.68,24.37-.78,59.95-10.47,81.38-17a13.5,13.5,0,1,0,11.66-20.29Z"/><path id="_Tracé_26" data-name="&lt;Tracé&gt;" class="cls-12" d="M348.64,406.43c-3.06-1.71-6.64-3.77-10.44-6-1-25.39-7.27-139.7-38.41-250a21.21,21.21,0,0,1,7.12-.11,6.74,6.74,0,0,1,5.31,5.6C340.15,262.61,347.21,376.81,348.64,406.43Z"/><path id="_Tracé_27" data-name="&lt;Tracé&gt;" class="cls-12" d="M327.1,393.45c-3.6-2.35-7.13-4.79-10.36-7.23-2.1-34.74-11.43-158.68-41.49-246.74a9.72,9.72,0,0,1,6.36.17c3.57,1.28,5.52,5.09,5.52,5.09C317.86,247.23,325.36,364.16,327.1,393.45Z"/><path id="_Tracé_28" data-name="&lt;Tracé&gt;" class="cls-13" d="M326.63,162.23s-3.22-6-7.18-7.59a7.64,7.64,0,0,0-7.23,1.2c27.93,106.77,35,221,36.42,250.59,5.82,3.26,9.77,5.3,9.77,5.3C354,284.34,332.88,188.52,327.76,166.86Z"/><path id="_Tracé_29" data-name="&lt;Tracé&gt;" class="cls-13" d="M338.2,400.39c-3.59-2.15-7.39-4.5-11.1-6.94-1.74-29.29-9.24-146.22-40-248.71a8.63,8.63,0,0,1,6.57.21,14.88,14.88,0,0,1,6.09,5.4C330.93,260.69,337.16,375,338.2,400.39Z"/><path id="_Tracé_30" data-name="&lt;Tracé&gt;" class="cls-13" d="M316.74,386.22c-2.37-1.78-4.58-3.56-6.53-5.3-12.33-140-40.5-243.89-40.5-243.89a4,4,0,0,1,3.08-.66c1.76.36,2.46,3.11,2.46,3.11C305.31,227.54,314.64,351.48,316.74,386.22Z"/><path id="_Tracé_31" data-name="&lt;Tracé&gt;" class="cls-8" d="M326.63,162.23s26.72,104.23,31.78,249.5c41.61.89,82.11-5,111.16-11.44,19.67-153.2,46.67-247.41,46.67-247.41Z"/><path id="_Tracé_32" data-name="&lt;Tracé&gt;" class="cls-8" d="M410.47,409.63c-8.76.85-17.81,1.5-27,1.86-.64-35-4.2-160.75-23.31-250.92,0,0,4.95-6.81,17.86-8a31.47,31.47,0,0,1,21.57,6C407.58,233,410,373.39,410.47,409.63Z"/><path id="_Tracé_33" data-name="&lt;Tracé&gt;" class="cls-8" d="M482.15,154.56c-12.39,73-24,192.51-27.55,248.79-6.69,1.26-13.79,2.45-21.23,3.52.13-27.83,4.73-175,7-250.25a34.85,34.85,0,0,1,20.65-7.27C475.44,149.35,482.15,154.56,482.15,154.56Z"/><path id="_Tracé_34" data-name="&lt;Tracé&gt;" class="cls-14" d="M383.45,411.49c-8.24.32-16.62.42-25,.24-5.06-145.27-31.78-249.5-31.78-249.5s2.07-7.59,15-8.47,18.53,6.81,18.53,6.81C379.25,250.74,382.81,376.52,383.45,411.49Z"/><path id="_Tracé_35" data-name="&lt;Tracé&gt;" class="cls-14" d="M440.41,156.62c-2.31,75.3-6.91,222.42-7,250.25-7.35,1.05-15,2-22.9,2.76-.5-36.24-2.89-176.68-10.9-251,0,0,4.26-6.63,18.94-7.81S440.41,156.62,440.41,156.62Z"/><path id="_Tracé_36" data-name="&lt;Tracé&gt;" class="cls-14" d="M516.24,152.88s-27,94.21-46.67,247.41c-4.7,1-9.7,2.08-15,3.06,3.5-56.28,15.16-175.8,27.55-248.79,0,0,7.09-5.35,15.6-5.65S516.24,152.88,516.24,152.88Z"/><path id="_Tracé_37" data-name="&lt;Tracé&gt;" class="cls-8" d="M330.46,170.9a1.14,1.14,0,0,1-1.12-.9c-.58-2.58-1.16-4.77-1.16-4.8a1.14,1.14,0,1,1,2.21-.59s.6,2.26,1.19,4.89a1.15,1.15,0,0,1-.87,1.37Z"/><path id="_Tracé_38" data-name="&lt;Tracé&gt;" class="cls-8" d="M329.58,162.68a1.14,1.14,0,0,1-.9-1.86c.1-.12,9.75-11.77,28.27-2.36a1.14,1.14,0,0,1-1,2c-16.88-8.58-25.35,1.65-25.44,1.75A1.14,1.14,0,0,1,329.58,162.68Z"/><path id="_Tracé_39" data-name="&lt;Tracé&gt;" class="cls-8" d="M361.27,408.92a1.15,1.15,0,0,1-1.14-1.09c-6.67-141.62-28.51-230.32-28.73-231.2a1.15,1.15,0,1,1,2.23-.55c.22.88,22.11,89.8,28.79,231.64a1.15,1.15,0,0,1-1.09,1.2Z"/><path id="_Tracé_40" data-name="&lt;Tracé&gt;" class="cls-8" d="M402.66,160a1.15,1.15,0,0,1-.79-2c1-.89,4.23-3.83,6.29-3.83a1.15,1.15,0,1,1,0,2.29c-.77,0-3.1,1.7-4.72,3.21A1.13,1.13,0,0,1,402.66,160Z"/><path id="_Tracé_41" data-name="&lt;Tracé&gt;" class="cls-8" d="M436.77,158.87a1.13,1.13,0,0,1-.53-.14,34.37,34.37,0,0,0-22.94-3.43,1.15,1.15,0,0,1-.6-2.21c.48-.13,11.81-3.12,24.61,3.61a1.15,1.15,0,0,1-.54,2.17Z"/><path id="_Tracé_42" data-name="&lt;Tracé&gt;" class="cls-8" d="M484.1,157.32a1.14,1.14,0,0,1-.63-2.1,41.16,41.16,0,0,1,4.9-2.82,1.15,1.15,0,1,1,.85,2.13,37.24,37.24,0,0,0-4.49,2.61A1.18,1.18,0,0,1,484.1,157.32Z"/><path id="_Tracé_43" data-name="&lt;Tracé&gt;" class="cls-8" d="M512.28,156.22a1.18,1.18,0,0,1-.48-.1c-10.63-4.79-17.48-2.9-17.54-2.88a1.15,1.15,0,0,1-.66-2.2c.31-.09,7.66-2.19,19.15,3a1.15,1.15,0,0,1-.47,2.19Z"/><path id="_Tracé_44" data-name="&lt;Tracé&gt;" class="cls-8" d="M301.11,152.32a.78.78,0,0,1-.75-.6.77.77,0,0,1,.59-.91,10.05,10.05,0,0,1,1.77-.24.77.77,0,1,1,0,1.53,10.16,10.16,0,0,0-1.45.2Z"/><path id="_Tracé_45" data-name="&lt;Tracé&gt;" class="cls-8" d="M310.58,156.14a.78.78,0,0,1-.71-.47,4.64,4.64,0,0,0-4.05-3.06.75.75,0,0,1-.78-.74.76.76,0,0,1,.75-.78,6.08,6.08,0,0,1,5.49,4,.77.77,0,0,1-.4,1A.66.66,0,0,1,310.58,156.14Z"/><path id="_Tracé_46" data-name="&lt;Tracé&gt;" class="cls-8" d="M276.46,141.09a.76.76,0,0,1-.29-1.47,3.44,3.44,0,0,1,2-.1.76.76,0,0,1-.4,1.47,2,2,0,0,0-1.06,0A.69.69,0,0,1,276.46,141.09Z"/><path id="_Tracé_47" data-name="&lt;Tracé&gt;" class="cls-8" d="M286.14,145.86a.74.74,0,0,1-.62-.32c-2.33-3.33-4.24-3.88-4.26-3.88a.77.77,0,0,1-.55-.93.76.76,0,0,1,.92-.56c.09,0,2.43.63,5.14,4.49a.77.77,0,0,1-.19,1.07A.78.78,0,0,1,286.14,145.86Z"/><path id="_Tracé_48" data-name="&lt;Tracé&gt;" class="cls-15" d="M379.76,97.85s8.81-8.51,8.81-1.62S384.17,102.69,379.76,97.85Z"/><path id="_Tracé_49" data-name="&lt;Tracé&gt;" class="cls-15" d="M456.66,125.63s6.46-6.24,6.46-1.18S459.89,129.19,456.66,125.63Z"/><path id="_Tracé_50" data-name="&lt;Tracé&gt;" class="cls-15" d="M352.6,117.08s-8.89,1.28-5.93-2.82S352.06,112.31,352.6,117.08Z"/><path id="_Tracé_51" data-name="&lt;Tracé&gt;" class="cls-15" d="M406.77,104.74s4.69-3.52,5.28-.58-2.35,4.4-.59,5,7.63,5.28,2.06,5.87-5-4.11-7.34-4.11-7.63,2-7.93-.59,5-4.11,5-4.11-5.87-5.87-2.05-6.46S406.77,104.74,406.77,104.74Z"/><path id="_Tracé_52" data-name="&lt;Tracé&gt;" class="cls-15" d="M323.77,129.16s4.93-1.63,4.59,1-3.21,3-1.91,4,4.89,6.59.06,5.5-3-4.86-5-5.52-7-.44-6.46-2.74,5.34-2,5.34-2-3.25-6.59.11-6S323.77,129.16,323.77,129.16Z"/><path id="_Tracé_53" data-name="&lt;Tracé&gt;" class="cls-15" d="M384.39,129.1a6.11,6.11,0,0,0,5.28,2c3.3-.44,6.82-3.52,5.72.22s-1.76,5.07-5.06,3.53-4.4,1.1-6.16-1.32A3.38,3.38,0,0,1,384.39,129.1Z"/><path id="_Tracé_54" data-name="&lt;Tracé&gt;" class="cls-15" d="M349.17,138.94a6.11,6.11,0,0,0,5.28,2c3.3-.44,6.83-3.53,5.72.22s-1.76,5.06-5.06,3.52-4.4,1.1-6.16-1.32A3.37,3.37,0,0,1,349.17,138.94Z"/><path id="_Tracé_55" data-name="&lt;Tracé&gt;" class="cls-15" d="M430.47,113.7a6.11,6.11,0,0,0,5.28,2c3.3-.44,6.82-3.53,5.72.22s-1.76,5.06-5.06,3.52-4.4,1.1-6.16-1.32A3.36,3.36,0,0,1,430.47,113.7Z"/><path id="_Tracé_56" data-name="&lt;Tracé&gt;" class="cls-15" d="M386.37,113.92a6.11,6.11,0,0,0,5.28,2c3.3-.44,6.83-3.53,5.72.22s-1.76,5.06-5.06,3.52-4.4,1.1-6.16-1.32A3.37,3.37,0,0,1,386.37,113.92Z"/><path id="_Tracé_57" data-name="&lt;Tracé&gt;" class="cls-15" d="M326.5,144.22a6.11,6.11,0,0,0,5.28,2c3.3-.44,6.82-3.52,5.72.22s-1.76,5.06-5.06,3.52-4.4,1.1-6.16-1.32A3.37,3.37,0,0,1,326.5,144.22Z"/><path id="_Tracé_58" data-name="&lt;Tracé&gt;" class="cls-15" d="M355.7,100.71a6.11,6.11,0,0,0,5.28,2c3.3-.44,6.83-3.52,5.72.22s-1.76,5.06-5.06,3.52-4.4,1.1-6.16-1.32A3.37,3.37,0,0,1,355.7,100.71Z"/><path id="_Tracé_59" data-name="&lt;Tracé&gt;" class="cls-15" d="M337.21,125.66a6.11,6.11,0,0,0,5.28,2c3.3-.44,6.83-3.53,5.72.22s-1.76,5.06-5.06,3.52-4.4,1.1-6.16-1.32A3.37,3.37,0,0,1,337.21,125.66Z"/><path id="_Tracé_60" data-name="&lt;Tracé&gt;" class="cls-15" d="M453.14,134.46a6.11,6.11,0,0,0,5.28,2c3.3-.44,6.82-3.52,5.72.22s-1.76,5.06-5.06,3.52-4.4,1.1-6.16-1.32A3.37,3.37,0,0,1,453.14,134.46Z"/><path id="_Tracé_61" data-name="&lt;Tracé&gt;" class="cls-15" d="M432,136.73s-5.29-3.52-6.46-.29,3.52,4.4,4.7,4.4-4.11,6.75,1.76,6.75,3.52-5.57,3.52-5.57,9.1.58,7-2.06A8.63,8.63,0,0,0,437,137s2.34-5-1.18-5S432,136.73,432,136.73Z"/><path id="_Tracé_62" data-name="&lt;Tracé&gt;" class="cls-15" d="M476,134.39s-5.28-3.53-6.46-.3,3.52,4.41,4.7,4.41-4.11,6.75,1.76,6.75,3.52-5.58,3.52-5.58,9.1.59,7.05-2.06a8.67,8.67,0,0,0-5.58-2.93s2.35-5-1.17-5S476,134.39,476,134.39Z"/><path id="_Tracé_63" data-name="&lt;Tracé&gt;" class="cls-15" d="M370.43,112.6s-4.39-2.93-5.37-.25S368,116,369,116s-3.42,5.62,1.46,5.62,2.94-4.64,2.94-4.64,7.57.48,5.86-1.72a7.24,7.24,0,0,0-4.64-2.44s2-4.15-1-4.15S370.43,112.6,370.43,112.6Z"/><path id="_Tracé_64" data-name="&lt;Tracé&gt;" class="cls-15" d="M405,143.92s5.2,1,5-1.87-4.13-2.24-5-1.85,1-6.51-3.54-4.61-.89,5.42-.89,5.42-7.17,2.5-4.73,3.86a7.18,7.18,0,0,0,5.22.44s-.18,4.59,2.52,3.44S405,143.92,405,143.92Z"/><path id="_Tracé_65" data-name="&lt;Tracé&gt;" class="cls-15" d="M298.47,131.26s-4.4-2.93-5.38-.24,2.93,3.66,3.91,3.66-3.42,5.62,1.47,5.62,2.93-4.64,2.93-4.64,7.57.49,5.86-1.71a7.23,7.23,0,0,0-4.64-2.45s1.95-4.15-1-4.15S298.47,131.26,298.47,131.26Z"/><path id="_Tracé_66" data-name="&lt;Tracé&gt;" class="cls-15" d="M372,139.22s-5.28-.19-4.71,2.61,4.42,1.59,5.25,1.07,0,6.58,4.2,4,.06-5.49.06-5.49,6.7-3.55,4.1-4.53a7.21,7.21,0,0,0-5.24.35s-.51-4.56-3-3S372,139.22,372,139.22Z"/><path id="_Tracé_67" data-name="&lt;Tracé&gt;" class="cls-15" d="M366.12,134s.88-5.51,5.28-4.63C371.4,129.32,361.94,123.6,366.12,134Z"/><path id="_Tracé_68" data-name="&lt;Tracé&gt;" class="cls-15" d="M410.36,134.39s.88-5.51,5.28-4.63C415.64,129.76,406.18,124,410.36,134.39Z"/><path id="_Tracé_69" data-name="&lt;Tracé&gt;" class="cls-15" d="M440.21,106.29s-5,2.53-6.85-1.55C433.36,104.74,434.31,115.76,440.21,106.29Z"/><path id="_Tracé_70" data-name="&lt;Tracé&gt;" class="cls-15" d="M318.43,110.55s5.53-.71,5.93,3.76C324.36,114.31,327.17,103.61,318.43,110.55Z"/><path id="_Tracé_71" data-name="&lt;Tracé&gt;" class="cls-8" d="M276.09,137.79a.55.55,0,0,1-.18,0,.76.76,0,0,1-.56-.92c.08-.36,2.18-8.69,8.16-9.17a.77.77,0,1,1,.12,1.53c-4.89.39-6.78,7.92-6.8,8A.75.75,0,0,1,276.09,137.79Z"/><path id="_Tracé_72" data-name="&lt;Tracé&gt;" class="cls-8" d="M288.86,124.59a.69.69,0,0,1-.2,0,.77.77,0,0,1-.54-.94l.88-3.3a.76.76,0,0,1,.93-.54.78.78,0,0,1,.55.94l-.88,3.3A.79.79,0,0,1,288.86,124.59Z"/><path id="_Tracé_73" data-name="&lt;Tracé&gt;" class="cls-8" d="M292.6,118a.79.79,0,0,1-.52-.2.77.77,0,0,1-.05-1.08c.06,0,5.15-5.51,11.57-1a.76.76,0,1,1-.88,1.25,7.15,7.15,0,0,0-9.56.77A.75.75,0,0,1,292.6,118Z"/><path id="_Tracé_74" data-name="&lt;Tracé&gt;" class="cls-8" d="M315.78,124.88h-.11A.77.77,0,0,1,315,124c.07-.5.8-4.91,3.57-5.34,4.89-.76,6.2,1.14,6.74,4.45a.77.77,0,0,1-1.51.25c-.42-2.63-1.05-3.8-5-3.19-1.43.22-2.16,3.07-2.3,4.06A.76.76,0,0,1,315.78,124.88Z"/><path id="_Tracé_75" data-name="&lt;Tracé&gt;" class="cls-8" d="M377.56,110.5a.76.76,0,0,1-.76-.77,7.83,7.83,0,0,0-1-3.73c-.53-.75-2.71-.54-4-.16a.76.76,0,1,1-.44-1.46c.44-.13,4.31-1.2,5.68.73a9.27,9.27,0,0,1,1.25,4.62.76.76,0,0,1-.77.77Z"/><path id="_Tracé_76" data-name="&lt;Tracé&gt;" class="cls-8" d="M382.19,117.32a.75.75,0,0,1-.38-.1.76.76,0,0,1-.29-1c.45-.78-.51-3-1.3-4.28a.76.76,0,0,1,1.29-.81c.41.65,2.39,4,1.34,5.85A.77.77,0,0,1,382.19,117.32Z"/><path id="_Tracé_77" data-name="&lt;Tracé&gt;" class="cls-8" d="M343,104.33l-.21,0a.77.77,0,0,1-.53-1l.88-3.08a.76.76,0,1,1,1.47.42l-.88,3.08A.76.76,0,0,1,343,104.33Z"/><path id="_Tracé_78" data-name="&lt;Tracé&gt;" class="cls-8" d="M345.87,97.29a.78.78,0,0,1-.55-.23.76.76,0,0,1,0-1.08c.08-.07,7.38-7,14-1.82a.77.77,0,1,1-.95,1.21c-5.57-4.38-11.92,1.64-12,1.71A.77.77,0,0,1,345.87,97.29Z"/><path id="_Tracé_79" data-name="&lt;Tracé&gt;" class="cls-8" d="M307.27,115.63a.71.71,0,0,1-.2,0,.76.76,0,0,1-.53-.94l.88-3.23a.76.76,0,0,1,.93-.54.77.77,0,0,1,.54.94l-.88,3.23A.76.76,0,0,1,307.27,115.63Z"/><path id="_Tracé_80" data-name="&lt;Tracé&gt;" class="cls-8" d="M310.8,110.2a.66.66,0,0,1-.28,0,.76.76,0,0,1-.44-1c0-.07,3-7.39,14-3.67a.77.77,0,1,1-.49,1.45c-9.62-3.26-12.08,2.72-12.1,2.78A.77.77,0,0,1,310.8,110.2Z"/><path id="_Tracé_81" data-name="&lt;Tracé&gt;" class="cls-8" d="M361.72,133.61a.77.77,0,0,1-.74-.55c-.13-.43-1.18-4.26.68-5.86a.77.77,0,0,1,1.08.09.76.76,0,0,1-.09,1.07c-.88.76-.52,3.2-.2,4.27a.76.76,0,0,1-.52,1Z"/><path id="_Tracé_82" data-name="&lt;Tracé&gt;" class="cls-8" d="M426.43,117.76a.76.76,0,0,1-.7-.46c-.14-.32-1.35-3.22-.26-5.11a3,3,0,0,1,2.41-1.45.76.76,0,1,1,.18,1.51,1.54,1.54,0,0,0-1.26.7c-.6,1,.05,3.1.33,3.74a.76.76,0,0,1-.7,1.07Z"/><path id="_Tracé_83" data-name="&lt;Tracé&gt;" class="cls-8" d="M315.05,135.81H315c-2.73-.21-4.64-1.7-5.12-4a5.41,5.41,0,0,1,2.62-5.81.76.76,0,0,1,1,.31.77.77,0,0,1-.31,1,3.9,3.9,0,0,0-1.84,4.15c.33,1.61,1.7,2.62,3.74,2.77a.76.76,0,0,1,.7.83A.76.76,0,0,1,315.05,135.81Z"/><path id="_Tracé_84" data-name="&lt;Tracé&gt;" class="cls-8" d="M388.4,127.27c-2,0-4.29-2.21-4.77-2.69a.76.76,0,1,1,1.08-1.08c1.06,1.06,3,2.46,3.89,2.22a.77.77,0,0,1,.93.56.75.75,0,0,1-.55.92A2.25,2.25,0,0,1,388.4,127.27Z"/><path id="_Tracé_85" data-name="&lt;Tracé&gt;" class="cls-8" d="M398,129.87h-.1a.76.76,0,0,1-.66-.85c.14-1.18,0-2-.54-2.33-.95-.7-3,0-3.68.26a.77.77,0,0,1-1-.39.78.78,0,0,1,.39-1c.34-.15,3.38-1.44,5.21-.09,1,.72,1.36,2,1.14,3.74A.76.76,0,0,1,398,129.87Z"/><path id="_Tracé_86" data-name="&lt;Tracé&gt;" class="cls-8" d="M380.21,90.91a.77.77,0,0,1-.55-1.31l1.77-1.76a.76.76,0,1,1,1.08,1.08l-1.76,1.76A.78.78,0,0,1,380.21,90.91Z"/><path id="_Tracé_87" data-name="&lt;Tracé&gt;" class="cls-8" d="M398,93.11a.77.77,0,0,1-.63-.32c-5.89-8.33-12-5.19-12.22-5.06a.76.76,0,0,1-.73-1.34c.08,0,7.5-4,14.2,5.51a.78.78,0,0,1-.18,1.07A.82.82,0,0,1,398,93.11Z"/><path id="_Tracé_88" data-name="&lt;Tracé&gt;" class="cls-8" d="M420.05,94.65a.77.77,0,0,1-.25-1.49l3.31-1.1a.75.75,0,0,1,1,.48.76.76,0,0,1-.48,1l-3.3,1.1A.67.67,0,0,1,420.05,94.65Z"/><path id="_Tracé_89" data-name="&lt;Tracé&gt;" class="cls-8" d="M435.67,101.69a.75.75,0,0,1-.71-.5c-2.66-7.35-8.93-7.64-9-7.64a.76.76,0,0,1-.74-.79A.75.75,0,0,1,426,92c.3,0,7.38.33,10.38,8.65a.76.76,0,0,1-.46,1A.75.75,0,0,1,435.67,101.69Z"/><path id="_Tracé_90" data-name="&lt;Tracé&gt;" class="cls-8" d="M467.37,116.88a.76.76,0,0,1-.26-1.48l3.09-1.1a.76.76,0,0,1,.51,1.44l-3.08,1.1A.78.78,0,0,1,467.37,116.88Z"/><path id="_Tracé_91" data-name="&lt;Tracé&gt;" class="cls-8" d="M482.56,122.6a.77.77,0,0,1-.68-.41c-3.61-7-8-6.25-8.19-6.21a.76.76,0,0,1-.32-1.49c.23,0,5.69-1.13,9.87,7a.76.76,0,0,1-.33,1A.72.72,0,0,1,482.56,122.6Z"/><path id="_Tracé_92" data-name="&lt;Tracé&gt;" class="cls-8" d="M448.88,140.21a.75.75,0,0,1-.55-.24c-.25-.26-2.43-2.64-2.14-4.81a2.84,2.84,0,0,1,1.41-2.09.77.77,0,0,1,1,.26.76.76,0,0,1-.25,1,1.31,1.31,0,0,0-.7,1c-.16,1.24,1.23,3,1.74,3.56a.77.77,0,0,1-.56,1.29Z"/><path id="_Tracé_93" data-name="&lt;Tracé&gt;" class="cls-8" d="M474.86,128.55a.79.79,0,0,1-.57-.25.77.77,0,0,1,0-1.08c.12-.11,3-2.71,5.58-1.93a.77.77,0,0,1,.51.95.75.75,0,0,1-.95.51c-1.46-.43-3.46,1-4.11,1.6A.78.78,0,0,1,474.86,128.55Z"/><path id="_Tracé_94" data-name="&lt;Tracé&gt;" class="cls-8" d="M485.86,134.05a.7.7,0,0,1-.31-.07.76.76,0,0,1-.39-1c.56-1.26-.88-3.39-1.42-4a.77.77,0,0,1,.09-1.08.76.76,0,0,1,1.07.09c.28.33,2.71,3.3,1.66,5.65A.78.78,0,0,1,485.86,134.05Z"/><path id="_Tracé_95" data-name="&lt;Tracé&gt;" class="cls-8" d="M440.22,133.1l-.2,0a.76.76,0,0,1-.53-.94c.36-1.3-.09-1.78-.24-1.94-1.19-1.29-5-.88-6.21-.63a.76.76,0,0,1-.77-.3.74.74,0,0,1,0-.82c1-1.84-1.77-3.68-2.17-3.93a2,2,0,0,0-1.64,0,4.71,4.71,0,0,0-1.91,2.6.77.77,0,0,1-.86.54,4.42,4.42,0,0,0-3.82.72,5.42,5.42,0,0,0-1.45,3.78.77.77,0,0,1-1.53.05,6.91,6.91,0,0,1,2-5,5.58,5.58,0,0,1,4.46-1.17,5.78,5.78,0,0,1,2.48-2.92,3.56,3.56,0,0,1,2.93,0l.1,0c1.42.84,3.38,2.64,3.19,4.71,1.78-.2,4.93-.3,6.4,1.28a3.34,3.34,0,0,1,.59,3.39A.77.77,0,0,1,440.22,133.1Z"/><path id="_Tracé_96" data-name="&lt;Tracé&gt;" class="cls-8" d="M389.74,148.65a.73.73,0,0,1-.5-.19c-3.63-3.22-3.2-6.26-2.62-7.79s1.69-2.65,2.54-2.65a.77.77,0,0,1,.09,1.53,3.82,3.82,0,0,0-1.42,2.46c-.32,1.78.52,3.62,2.42,5.31a.74.74,0,0,1,.06,1.07A.76.76,0,0,1,389.74,148.65Z"/><path id="_Tracé_97" data-name="&lt;Tracé&gt;" class="cls-8" d="M345.13,147.48a.74.74,0,0,1-.46-.16,6.77,6.77,0,0,1-3-4.87c-.29-3.47,2.47-6.41,2.59-6.54a.76.76,0,0,1,1.1,1.06s-2.4,2.58-2.16,5.36a5.26,5.26,0,0,0,2.36,3.77.77.77,0,0,1,.16,1.07A.79.79,0,0,1,345.13,147.48Z"/><path id="_Tracé_98" data-name="&lt;Tracé&gt;" class="cls-8" d="M365.68,145.13a.78.78,0,0,1-.74-.55c-.15-.53-1.48-5.25.3-7.48a3,3,0,0,1,1.84-1.08,5.53,5.53,0,0,1,.6-3.47c.86-1.53,2.51-2.55,4.89-3s4.07-.19,5.35.79a4.54,4.54,0,0,1,1.56,2.3c1.12-.17,3.15-.26,4.43.87a3.6,3.6,0,0,1,1,3.34.77.77,0,0,1-1.52-.19,2.15,2.15,0,0,0-.51-2c-1-.86-3.15-.56-3.83-.39a.77.77,0,0,1-.95-.69,3.1,3.1,0,0,0-1.15-2c-.91-.69-2.29-.85-4.1-.49s-3.23,1.15-3.86,2.28a4.29,4.29,0,0,0-.27,3.17.75.75,0,0,1-.1.71.79.79,0,0,1-.66.31,1.61,1.61,0,0,0-1.54.55c-1.09,1.37-.37,4.95,0,6.1a.76.76,0,0,1-.73,1Z"/><path id="_Tracé_99" data-name="&lt;Tracé&gt;" class="cls-8" d="M365.24,117.32l-.18,0c-1.82-.43-5.17-2.31-4.77-6.32a3.73,3.73,0,0,1,1.59-2.83c2.25-1.54,6-.52,6.2-.47a.76.76,0,0,1,.54.93.77.77,0,0,1-.94.54c-.91-.25-3.56-.68-4.94.26a2.21,2.21,0,0,0-.92,1.72c-.37,3.67,3.43,4.64,3.6,4.68a.77.77,0,0,1-.18,1.51Z"/><path id="_Tracé_100" data-name="&lt;Tracé&gt;" class="cls-8" d="M397.86,116.45a5.28,5.28,0,0,1-.55,0,5.16,5.16,0,0,1-3.53-2.76c-2.16-3.6.59-7.07,2.8-8.77-.83-1.17-2.31-3.66-1.69-6,.41-1.55,1.66-2.7,3.7-3.41,5.79-2,8.87,1.39,9.92,2.93a7,7,0,0,1,7.23.7c4,3,1.23,8.91,1.11,9.16a.77.77,0,0,1-1,.36.76.76,0,0,1-.36-1c0-.05,2.33-5.05-.65-7.28a5.48,5.48,0,0,0-6.17-.27.76.76,0,0,1-1.11-.31c-.09-.2-2.45-4.92-8.45-2.84-1.53.54-2.45,1.33-2.73,2.36-.51,1.91,1.19,4.42,1.89,5.23a.76.76,0,0,1,.17.6.77.77,0,0,1-.33.54c-.22.14-5.22,3.47-3,7.18a3.73,3.73,0,0,0,2.44,2,3.1,3.1,0,0,0,2.26-.73.76.76,0,0,1,1.08,0,.75.75,0,0,1-.05,1.08A4.78,4.78,0,0,1,397.86,116.45Z"/><path id="_Tracé_101" data-name="&lt;Tracé&gt;" class="cls-8" d="M329.8,134.93a.76.76,0,0,1-.09-1.52c.06,0,1.9-.35,2.64-3.81a2.11,2.11,0,0,0-.3-1.91c-.75-.86-2.48-.94-3.08-.91a.75.75,0,0,1-.81-.7.76.76,0,0,1,.7-.82c.12,0,2.93-.19,4.34,1.42a3.6,3.6,0,0,1,.65,3.24c-1,4.59-3.84,5-4,5Z"/></g><g id="_Groupe_13" data-name="&lt;Groupe&gt;"><path id="_Tracé_102" data-name="&lt;Tracé&gt;" class="cls-14" d="M99.14,176.76l23.14,206.42c0,8,22.61,14.42,50.51,14.42s50.5-6.45,50.5-14.42l23.14-206.42Z"/><path id="_Tracé_103" data-name="&lt;Tracé&gt;" class="cls-16" d="M204.59,176.76,194.06,383.18l-.67,13.17a171.1,171.1,0,0,1-38.46.32c0-.48-.49-5.38-1.23-13.49-3.64-39.38-14.28-154.43-19.1-206.42Z"/><path id="_Tracé_104" data-name="&lt;Tracé&gt;" class="cls-17" d="M97.5,178.15l-1.83,13.64s15.24,16.72,79.64,16.72,74.36-17.45,74.36-17.45l-1.6-12.91s-16.14,11.64-72.88,12.29S97.5,178.15,97.5,178.15Z"/><ellipse id="_Tracé_105" data-name="&lt;Tracé&gt;" class="cls-18" cx="172.79" cy="178.15" rx="75.28" ry="16.89"/><path id="_Tracé_106" data-name="&lt;Tracé&gt;" class="cls-17" d="M172.79,174c-41.63,0-46.28-8.11-46.28-8.11v9.22c0,5.73,20.72,10.38,46.28,10.38s46.28-4.65,46.28-10.38v-9.22S214.41,174,172.79,174Z"/><ellipse id="_Tracé_107" data-name="&lt;Tracé&gt;" class="cls-19" cx="172.79" cy="165.86" rx="46.28" ry="10.38"/><path id="_Tracé_108" data-name="&lt;Tracé&gt;" class="cls-17" d="M179.8,163.59c0,1.17-3,2.12-6.64,2.12s-6.63-1-6.63-2.12,3-2.12,6.63-2.12S179.8,162.42,179.8,163.59Z"/><path id="_Tracé_109" data-name="&lt;Tracé&gt;" class="cls-8" d="M130.12,168.93a1.09,1.09,0,0,1-.53-.13c-.24-.13-2.28-1.3-2.22-3.11,0-1.16.9-2.15,2.56-2.92a1.1,1.1,0,1,1,.93,2c-1,.49-1.27.88-1.28,1,0,.27.59.84,1.07,1.1a1.11,1.11,0,0,1,.44,1.5A1.09,1.09,0,0,1,130.12,168.93Z"/><path id="_Tracé_110" data-name="&lt;Tracé&gt;" class="cls-8" d="M133.62,163.4a1.09,1.09,0,0,1-1-.74,1.11,1.11,0,0,1,.67-1.41c.6-.21,14.91-5.13,36.8-4.76a1.11,1.11,0,0,1,0,2.21h0c-21.45-.36-35.88,4.59-36,4.64A1.13,1.13,0,0,1,133.62,163.4Z"/><circle id="_Tracé_111" data-name="&lt;Tracé&gt;" class="cls-14" cx="172.64" cy="292.82" r="30.67"/><g id="_Groupe_14" data-name="&lt;Groupe&gt;"><path id="_Tracé_112" data-name="&lt;Tracé&gt;" class="cls-8" d="M179.06,287.43a3.6,3.6,0,0,0,1.87-1.11,3.67,3.67,0,0,0,1-1.92,1.72,1.72,0,0,0-.4-1.61,1.78,1.78,0,0,0-1.65-.38,3.47,3.47,0,0,0-1.88,1.11,3.67,3.67,0,0,0-1,1.92,1.7,1.7,0,0,0,.4,1.6A1.79,1.79,0,0,0,179.06,287.43Z"/><path id="_Tracé_transparent_4" data-name="&lt;Tracé transparent&gt;" class="cls-8" d="M211.08,297.13a1,1,0,0,0-.77.16,3.25,3.25,0,0,0-1,.93,16.39,16.39,0,0,1-1.4,1.49,17,17,0,0,1-1.81,1.49,13.94,13.94,0,0,1-1.85,1.13,2.73,2.73,0,0,1-1.54.36c-.09,0-.22-.09-.39-.29a6.05,6.05,0,0,1-.49-.7,5.31,5.31,0,0,1-.43-.86,2.25,2.25,0,0,1-.19-.82c1.3-.69,2.51-1.4,3.62-2.12a33.37,33.37,0,0,0,2.83-2,8.45,8.45,0,0,0,2-2,7.88,7.88,0,0,0,1.17-2.85,2.19,2.19,0,0,0-.36-1.83,1.93,1.93,0,0,0-1.74-.47,7.8,7.8,0,0,0-3,1.26,10.59,10.59,0,0,0-1.58,1.25c-.6.56-1.23,1.17-1.88,1.85l-2,2.08c-.67.71-1.26,1.36-1.79,1.95s-1,1.07-1.34,1.45-.57.56-.63.56-.1-.07-.11-.23a2.2,2.2,0,0,1,0-.56c0-.23.07-.45.11-.66a4,4,0,0,1,.16-.54l4.14-4.32q2.06-2.14,3.85-4.16t3.16-3.87a21,21,0,0,0,2.13-3.41,6.1,6.1,0,0,0,.7-2.76,2.33,2.33,0,0,0-1.09-1.92,2.69,2.69,0,0,0-3,0,13.42,13.42,0,0,0-3.59,2.91,33.31,33.31,0,0,0-3.62,4.84,40.79,40.79,0,0,0-3,5.82,57.13,57.13,0,0,0-2.37,6.55c-.14.47-.26.92-.38,1.36a11,11,0,0,1-1.27,1.31q-.78.68-1.5,1.2a4.76,4.76,0,0,1-1.33.72c-.41.14-.67.12-.79-.06a1.43,1.43,0,0,1-.07-1.27,9.83,9.83,0,0,1,.81-1.83,24.12,24.12,0,0,1,1.36-2.15l1.58-2.26c.53-.75,1-1.48,1.45-2.17a10.85,10.85,0,0,0,1-1.86,1.53,1.53,0,0,0,.07-1.06,1.09,1.09,0,0,0-.56-.63,1.82,1.82,0,0,0-1-.16,3.09,3.09,0,0,0-1.11.31,14.89,14.89,0,0,0-2.37,1.68c-.86.72-1.72,1.51-2.58,2.35s-1.69,1.7-2.51,2.58-1.53,1.66-2.15,2.37-1.11,1.29-1.47,1.72-.54.63-.54.57a9.21,9.21,0,0,1,.48-1.34,6.51,6.51,0,0,1,.92-1.6l1.13-1.29c.52-.59,1-1.22,1.56-1.9s1-1.34,1.45-2a5.23,5.23,0,0,0,.79-1.45,2.25,2.25,0,0,0,.09-.86.46.46,0,0,0-.38-.43,1.82,1.82,0,0,0-1,.19,8.24,8.24,0,0,0-1.61,1,14.69,14.69,0,0,0-2.69,2.53,26.81,26.81,0,0,0-2.33,3.26c-.48.8-.91,1.61-1.3,2.43,0,0,0,0,0,.06a10.32,10.32,0,0,1-1.32,1.33,14.75,14.75,0,0,1-1.51,1.15,8.24,8.24,0,0,1-1.38.77,1.56,1.56,0,0,1-.95.18.83.83,0,0,1-.52-.72,4.18,4.18,0,0,1,0-1.45,10.76,10.76,0,0,1,.52-1.9,19.85,19.85,0,0,1,.93-2.08,11.81,11.81,0,0,1,.88-1.4c.35-.48.71-1,1.09-1.4a15.5,15.5,0,0,1,1.13-1.25c.38-.37.71-.7,1-1s.18-.33,0-.54a2,2,0,0,0-.77-.52,3.26,3.26,0,0,0-1.09-.23,1.38,1.38,0,0,0-1,.34A20.87,20.87,0,0,0,172,293a26.44,26.44,0,0,0-2.06,3.77q-.34.79-.63,1.56a11,11,0,0,1-1.27,1.31,16.9,16.9,0,0,1-1.58,1.25,7.83,7.83,0,0,1-1.43.79c-.42.17-.71.17-.86,0s-.22-.52-.13-1a10,10,0,0,1,.54-1.81c.27-.69.6-1.44,1-2.24s.82-1.59,1.28-2.37.95-1.52,1.43-2.19a12,12,0,0,1,1.36-1.65c.09-.1.09-.22,0-.39a1.84,1.84,0,0,0-.39-.47,2.26,2.26,0,0,0-.52-.37.6.6,0,0,0-.41-.09c-.18.09-.42.2-.72.32a4.26,4.26,0,0,1-.93.25,3.91,3.91,0,0,1-.9,0,1,1,0,0,1-.7-.36,8.87,8.87,0,0,0,.54-1.22,3.58,3.58,0,0,0,.23-1.2,1.94,1.94,0,0,0-.27-1,1.71,1.71,0,0,0-.95-.68,2,2,0,0,0-1.93.3,4.35,4.35,0,0,0-1.49,1.72,3.92,3.92,0,0,0-.38,2.24,2.37,2.37,0,0,0,1.4,1.85c-.34.69-.75,1.46-1.24,2.3a1.64,1.64,0,0,0-.53-.08q-.81,0-1.35,0l-1,0a28.46,28.46,0,0,0,2-4.8,14.72,14.72,0,0,0,.75-4.95,9.74,9.74,0,0,0-1.2-4.46,8.42,8.42,0,0,0-3.71-3.34,13.65,13.65,0,0,0-5.61-1.22,34.64,34.64,0,0,0-6.56.45,20.23,20.23,0,0,0-6.37,2.19,15.58,15.58,0,0,0-4.41,3.46,6.55,6.55,0,0,0-1.72,3.85,3.78,3.78,0,0,0,1.74,3.34,5.48,5.48,0,0,1,.95-2.62,10.84,10.84,0,0,1,2.24-2.44,16.81,16.81,0,0,1,3.21-2,21.57,21.57,0,0,1,3.87-1.45c-.82,1.36-1.76,3-2.83,4.84s-2.13,4-3.19,6.31-2.06,4.91-3,7.72A61,61,0,0,0,132,307.4c-.12.72-.06,1.19.18,1.4a.8.8,0,0,0,.95,0,3.78,3.78,0,0,0,1.24-1.15,6.87,6.87,0,0,0,1.07-2.17q.9-3,2.24-6.38c.88-2.26,1.89-4.55,3-6.85s2.36-4.59,3.7-6.83a75.79,75.79,0,0,1,4.28-6.4l.18-.23a10.93,10.93,0,0,1,1.27.07c.42,0,.84.1,1.26.16a5,5,0,0,1,3.58,2.17,7.8,7.8,0,0,1,1.15,4,14.64,14.64,0,0,1-.7,4.73,16.69,16.69,0,0,1-2,4.36,33.08,33.08,0,0,0-6.49,2.28,28,28,0,0,0-5.31,3.22,14.34,14.34,0,0,0-3.33,3.5,3.44,3.44,0,0,0-.52,3.21,2,2,0,0,0,1.65,1.31,6.49,6.49,0,0,0,2.94-.27,17.68,17.68,0,0,0,3.71-1.63,28.4,28.4,0,0,0,4-2.75,35.47,35.47,0,0,0,3.82-3.67,28.22,28.22,0,0,0,3.19-4.29,14.57,14.57,0,0,1,1.56-.12l1.4,0a33.59,33.59,0,0,1-2.33,3.17,1.93,1.93,0,0,0-.5,1,.63.63,0,0,0,.21.63.74.74,0,0,0,.74,0,3.33,3.33,0,0,0,1.18-1.06,35.13,35.13,0,0,0,2.49-3.62c.75-1.27,1.38-2.4,1.9-3.39a9.23,9.23,0,0,0,1.22.18,5.1,5.1,0,0,0,1.17-.05,32,32,0,0,0-4.18,5.61,20.52,20.52,0,0,0-2.06,4.71,6.21,6.21,0,0,0-.18,3.25c.24.82.71,1.22,1.4,1.22a5.09,5.09,0,0,0,2.65-1,22.75,22.75,0,0,0,3-2.28c.56-.51,1.08-1,1.58-1.53a16.39,16.39,0,0,0-.2,1.71,5.64,5.64,0,0,0,.25,2.24,1.1,1.1,0,0,0,1.08.83,5.09,5.09,0,0,0,2.65-1,24.43,24.43,0,0,0,3-2.28l1-1h0a7.08,7.08,0,0,0-.21,2.49,1.32,1.32,0,0,0,.91,1.25c.24.06.64-.17,1.2-.68a13.53,13.53,0,0,0,1.78-2.13c.66-1,1.42-2,2.26-3s1.68-2,2.51-2.83a22.28,22.28,0,0,1,2.42-2.19,6.08,6.08,0,0,1,2-1.13,5.52,5.52,0,0,0-1.13,1.24c-.45.62-.92,1.33-1.4,2.15a25.41,25.41,0,0,0-1.36,2.6,14.54,14.54,0,0,0-.93,2.62,6.42,6.42,0,0,0-.18,2.2,1.44,1.44,0,0,0,.88,1.26,2,2,0,0,0,1.43-.11,11.5,11.5,0,0,0,1.94-1,20.65,20.65,0,0,0,2.15-1.58c.72-.6,1.41-1.22,2.06-1.83l.37-.37c0,.25-.09.51-.12.75a11.6,11.6,0,0,0-.09,3.48c.15.85.48,1.27,1,1.27a1.18,1.18,0,0,0,.75-.43,13.64,13.64,0,0,0,1-1.15c.38-.49.79-1.05,1.22-1.7s.9-1.33,1.38-2.06c.09.49.21,1,.37,1.61a8.53,8.53,0,0,0,.61,1.67,4.46,4.46,0,0,0,.9,1.31,1.65,1.65,0,0,0,1.2.52,5.15,5.15,0,0,0,2.65-1,24.19,24.19,0,0,0,3-2.28,36,36,0,0,0,2.62-2.63,16.86,16.86,0,0,0,1.63-2,2.41,2.41,0,0,0,.45-1.13C211.37,297.36,211.27,297.19,211.08,297.13Zm-13.19-4.5c.24-.62.52-1.26.82-1.92.63-1.42,1.29-2.75,2-4a33.64,33.64,0,0,1,2-3.3,16.34,16.34,0,0,1,1.92-2.33,3.84,3.84,0,0,1,1.74-1.08,6.64,6.64,0,0,1-.74,3,25.51,25.51,0,0,1-2.11,3.58q-1.31,1.89-3,3.93t-3.28,4Q197.53,293.56,197.89,292.63Zm-48.26,7.21a22.16,22.16,0,0,1-2.94,2.81,8.69,8.69,0,0,1-2.55,1.45,1.45,1.45,0,0,1-1.7-.32c-.15-.18-.07-.58.23-1.2a8.33,8.33,0,0,1,1.67-2.13,17.57,17.57,0,0,1,3.24-2.39,20.45,20.45,0,0,1,4.95-2A30.86,30.86,0,0,1,149.63,299.84Zm50.16-.95a37.74,37.74,0,0,1,3.33-4.09,5.89,5.89,0,0,1,3.28-2c.18.36.06.8-.34,1.31a11.46,11.46,0,0,1-1.68,1.63c-.71.57-1.47,1.14-2.3,1.69S200.49,298.47,199.79,298.89Z"/></g><path id="_Tracé_113" data-name="&lt;Tracé&gt;" class="cls-8" d="M124.86,385a1.11,1.11,0,0,1-1.1-1L104.65,210.23a1.11,1.11,0,0,1,2.2-.25L126,383.76a1.11,1.11,0,0,1-1,1.23Z"/><path id="_Tracé_114" data-name="&lt;Tracé&gt;" class="cls-8" d="M105.15,206.43a1.1,1.1,0,0,1-1.1-1l-.5-4.56a1.11,1.11,0,0,1,2.2-.25l.5,4.56a1.1,1.1,0,0,1-1,1.22Z"/><path id="_Tracé_115" data-name="&lt;Tracé&gt;" class="cls-8" d="M103.6,183.5a1.07,1.07,0,0,1-.49-.12,31.12,31.12,0,0,1-4.5-2.95A1.11,1.11,0,1,1,100,178.7a30.61,30.61,0,0,0,4.11,2.7,1.12,1.12,0,0,1,.49,1.49A1.11,1.11,0,0,1,103.6,183.5Z"/><path id="_Tracé_116" data-name="&lt;Tracé&gt;" class="cls-8" d="M174.39,194.74c-48.3,0-67.17-8.83-67.95-9.2a1.12,1.12,0,0,1-.52-1.48,1.11,1.11,0,0,1,1.48-.51c.19.09,19.3,9,67,9,19,0,55.32-2.72,71-12.91a1.1,1.1,0,1,1,1.2,1.85C230.49,192,193.63,194.74,174.39,194.74Z"/><path id="_Tracé_117" data-name="&lt;Tracé&gt;" class="cls-20" d="M169.46,164.06l-15-76.55L99.12,116.89a3.69,3.69,0,0,1-3.45-6.52L155.4,78.66a3.68,3.68,0,0,1,5.34,2.55l16,81.63c.19,1.52-1.94,2.17-3.25,2.34S169.9,165.24,169.46,164.06Z"/><path id="_Tracé_118" data-name="&lt;Tracé&gt;" class="cls-8" d="M104.77,174.46a1.1,1.1,0,0,1-.5-2.09,71.73,71.73,0,0,1,20-6.25,1.1,1.1,0,0,1,1.25.94,1.12,1.12,0,0,1-.94,1.25,70.62,70.62,0,0,0-19.32,6A1.1,1.1,0,0,1,104.77,174.46Z"/><path id="_Tracé_119" data-name="&lt;Tracé&gt;" class="cls-8" d="M173.63,175.36a179.19,179.19,0,0,1-38.9-4.12,1.11,1.11,0,0,1,.54-2.15c.39.1,39.27,9.63,77.42-.85a1.1,1.1,0,0,1,1.36.77,1.11,1.11,0,0,1-.77,1.36A150.74,150.74,0,0,1,173.63,175.36Z"/><path id="_Tracé_120" data-name="&lt;Tracé&gt;" class="cls-8" d="M96.41,114.12a.73.73,0,0,1-.65-.39.74.74,0,0,1,.3-1l55.68-29.86a.74.74,0,0,1,.69,1.3L96.76,114A.73.73,0,0,1,96.41,114.12Z"/><path id="_Tracé_121" data-name="&lt;Tracé&gt;" class="cls-8" d="M158.11,83.52a.74.74,0,0,1-.71-.51c-.15-.5-.37-.81-.58-.86s-.87.27-1.14.54a.75.75,0,0,1-1.05,0,.74.74,0,0,1,0-1,3,3,0,0,1,2.53-.94,2.44,2.44,0,0,1,1.64,1.85.73.73,0,0,1-.48.92A.57.57,0,0,1,158.11,83.52Z"/><path id="_Tracé_122" data-name="&lt;Tracé&gt;" class="cls-8" d="M173.68,162.85a.74.74,0,0,1-.72-.59L158.3,87.59a.74.74,0,0,1,.59-.86.73.73,0,0,1,.86.58L174.41,162a.74.74,0,0,1-.58.87Z"/></g><g id="_Groupe_15" data-name="&lt;Groupe&gt;"><path id="_Tracé_123" data-name="&lt;Tracé&gt;" class="cls-18" d="M343.94,254a9.92,9.92,0,0,1-.6-13.37l-3.9-3.89a9.91,9.91,0,0,1-14-14l-3.89-3.89a9.91,9.91,0,0,1-14-14l-4.1-4.1a21.66,21.66,0,0,1-30.62,0L143.74,330a21.63,21.63,0,0,1,0,30.61l4.1,4.1a9.92,9.92,0,0,1,14,14l3.89,3.89a9.92,9.92,0,0,1,14,14l3.89,3.89a9.92,9.92,0,0,1,14,14l4.1,4.09a21.65,21.65,0,0,1,30.61,0L361.4,289.31a21.65,21.65,0,0,1,0-30.61l-4.1-4.1A9.93,9.93,0,0,1,343.94,254Z"/><g id="_Groupe_16" data-name="&lt;Groupe&gt;"><path id="_Tracé_transparent_5" data-name="&lt;Tracé transparent&gt;" class="cls-21" d="M220.5,343.38l2.13,2.13q5.66,5.64.33,11l-2.87,2.87q-5.33,5.32-11-.32l-22-21.95q-5.64-5.65-.32-11l2.87-2.87q5.32-5.33,11,.33l3.76,3.75L200,331.75l-3.43-3.42c-1.29-1.3-2.61-1.28-3.93,0l-.88.88c-1.18,1.18-1.11,2.41.18,3.71l21.3,21.3c1.3,1.3,2.53,1.36,3.71.18l1.11-1.11c1.17-1.17,1.11-2.41-.19-3.7l-1.8-1.81Z"/><path id="_Tracé_transparent_6" data-name="&lt;Tracé transparent&gt;" class="cls-21" d="M231.76,347.68l-33.25-33.25L203,310l33.25,33.25Z"/><path id="_Tracé_transparent_7" data-name="&lt;Tracé transparent&gt;" class="cls-21" d="M232.4,312.68l-16.06-16.07,4.44-4.45L254,325.41l-4.45,4.45L243,323.23l-19.91-10.37,21.76,21.76-4.44,4.45-33.25-33.25,4.45-4.44Z"/><path id="_Tracé_transparent_8" data-name="&lt;Tracé transparent&gt;" class="cls-21" d="M258.2,321.24,225,288l11-11,4,4-6.58,6.58,10.1,10.09,5.83-5.83,4,4-5.83,5.83,11.06,11.07,6.58-6.58,4,4Z"/><path id="_Tracé_transparent_9" data-name="&lt;Tracé transparent&gt;" class="cls-21" d="M267.74,284.29l-15.42-23.66,4.9-4.91L290.47,289,286,293.41l-21.3-22.22,12.41,19.07-3.43,3.43-19.08-12.41,22.23,21.3L272.41,307l-33.25-33.25,4.91-4.91Z"/><path id="_Tracé_transparent_10" data-name="&lt;Tracé transparent&gt;" class="cls-21" d="M298.85,280.59,294.41,285l-27.55-27.55q-5.7-5.7-.37-11l3.33-3.34q5.32-5.33,11,.37l27.55,27.56L304,275.49l-12.18-12.18-5.09,5.1Zm-11.11-21.31-11.07-11.06a2.43,2.43,0,0,0-3.89,0l-1.2,1.2a2.43,2.43,0,0,0,0,3.89l11.07,11.07Z"/></g><g id="_Groupe_17" data-name="&lt;Groupe&gt;"><polygon id="_Tracé_124" data-name="&lt;Tracé&gt;" class="cls-21" points="226.6 362.73 234 366.5 239.88 360.63 238.58 368.83 245.99 372.61 237.78 373.91 236.48 382.12 232.71 374.71 224.5 376.01 230.37 370.13 226.6 362.73"/><polygon id="_Tracé_125" data-name="&lt;Tracé&gt;" class="cls-21" points="246.37 342.96 253.77 346.74 259.65 340.86 258.35 349.07 265.75 352.84 257.54 354.14 256.24 362.35 252.47 354.95 244.26 356.25 250.14 350.37 246.37 342.96"/><polygon id="_Tracé_126" data-name="&lt;Tracé&gt;" class="cls-21" points="266.13 323.2 273.53 326.97 279.41 321.1 278.11 329.31 285.52 333.08 277.31 334.38 276.01 342.59 272.23 335.18 264.02 336.48 269.9 330.61 266.13 323.2"/><polygon id="_Tracé_127" data-name="&lt;Tracé&gt;" class="cls-21" points="285.89 303.44 293.3 307.21 299.18 301.33 297.88 309.54 305.28 313.31 297.07 314.62 295.77 322.82 292 315.42 283.79 316.72 289.67 310.84 285.89 303.44"/><polygon id="_Tracé_128" data-name="&lt;Tracé&gt;" class="cls-21" points="305.66 283.67 313.06 287.45 318.94 281.57 317.64 289.78 325.04 293.55 316.84 294.85 315.54 303.06 311.76 295.65 303.55 296.95 309.43 291.08 305.66 283.67"/></g><path id="_Tracé_transparent_11" data-name="&lt;Tracé transparent&gt;" class="cls-22" d="M231,402.4a.86.86,0,0,1-.59-.24,12.83,12.83,0,0,0-18.17,0,.83.83,0,0,1-1.17,0l-51-51a.83.83,0,0,1,0-1.17,12.87,12.87,0,0,0,0-18.18.83.83,0,0,1,0-1.17L273.61,217.13a.83.83,0,0,1,1.17,0,12.83,12.83,0,0,0,18.17,0,.83.83,0,0,1,1.17,0l51,51a.82.82,0,0,1,0,1.17,12.87,12.87,0,0,0,0,18.18.82.82,0,0,1,0,1.17L231.53,402.16A.82.82,0,0,1,231,402.4ZM161.8,350.6l49.82,49.82a14.52,14.52,0,0,1,19.31,0L343.34,288a14.52,14.52,0,0,1,0-19.3l-49.82-49.83a14.52,14.52,0,0,1-19.31,0L161.8,331.29a14.51,14.51,0,0,1,0,19.31Z"/><path id="_Tracé_129" data-name="&lt;Tracé&gt;" class="cls-8" d="M157.93,320.23a.76.76,0,0,1-.54-1.3L271.6,204.72a.76.76,0,0,1,1.08,1.08L158.47,320A.75.75,0,0,1,157.93,320.23Z"/><path id="_Tracé_130" data-name="&lt;Tracé&gt;" class="cls-8" d="M148.31,329.85a.76.76,0,0,1-.54-1.3l5.43-5.43a.76.76,0,1,1,1.08,1.08l-5.43,5.43A.75.75,0,0,1,148.31,329.85Z"/><path id="_Tracé_131" data-name="&lt;Tracé&gt;" class="cls-8" d="M305.44,205.84a.78.78,0,0,1-.54-.23l-2.22-2.22a.76.76,0,0,1,1.08-1.08l2.22,2.22a.76.76,0,0,1,0,1.08A.74.74,0,0,1,305.44,205.84Z"/><path id="_Tracé_132" data-name="&lt;Tracé&gt;" class="cls-8" d="M323.46,223.8a.8.8,0,0,1-.54-.21l-2.07-2a.76.76,0,0,1,1.07-1.09l2.07,2a.77.77,0,0,1,0,1.09A.73.73,0,0,1,323.46,223.8Z"/><path id="_Tracé_133" data-name="&lt;Tracé&gt;" class="cls-8" d="M341.27,241.67a.78.78,0,0,1-.54-.23l-2.22-2.22a.76.76,0,1,1,1.08-1.08l2.22,2.22a.76.76,0,0,1,0,1.08A.74.74,0,0,1,341.27,241.67Z"/><path id="_Tracé_134" data-name="&lt;Tracé&gt;" class="cls-8" d="M359.1,259.49a.74.74,0,0,1-.54-.23L356.34,257a.76.76,0,1,1,1.08-1.08l2.22,2.22a.76.76,0,0,1,0,1.08A.78.78,0,0,1,359.1,259.49Z"/><path id="_Tracé_135" data-name="&lt;Tracé&gt;" class="cls-8" d="M278.68,207.83a.69.69,0,0,1-.2,0,9.19,9.19,0,0,1-3.26-1.63.76.76,0,0,1-.08-1.08.77.77,0,0,1,1.08-.09,7.47,7.47,0,0,0,2.66,1.33.76.76,0,0,1-.2,1.5Z"/><path id="_Tracé_136" data-name="&lt;Tracé&gt;" class="cls-8" d="M287.16,209.51a29.65,29.65,0,0,1-5-.38.76.76,0,0,1,.27-1.5c.12,0,11.26,1.92,18.14-3.63a.76.76,0,0,1,1,1.19C297.14,208.77,291.28,209.51,287.16,209.51Z"/><path id="_Tracé_137" data-name="&lt;Tracé&gt;" class="cls-8" d="M315,223.52a11.73,11.73,0,0,1-6.65-2,.76.76,0,0,1,.91-1.22,10.57,10.57,0,0,0,8.55,1.34.77.77,0,0,1,.94.54.76.76,0,0,1-.54.93A11.83,11.83,0,0,1,315,223.52Z"/><path id="_Tracé_138" data-name="&lt;Tracé&gt;" class="cls-8" d="M333.14,241.53a11.73,11.73,0,0,1-6.65-2,.76.76,0,1,1,.92-1.22,10.56,10.56,0,0,0,8.67,1.3.76.76,0,0,1,.42,1.47A12.32,12.32,0,0,1,333.14,241.53Z"/><path id="_Tracé_139" data-name="&lt;Tracé&gt;" class="cls-8" d="M350.71,259.41a11.8,11.8,0,0,1-6.65-2,.76.76,0,0,1-.15-1.07.77.77,0,0,1,1.07-.15,10.55,10.55,0,0,0,8.52,1.35.77.77,0,0,1,.94.54.78.78,0,0,1-.54.94A12.39,12.39,0,0,1,350.71,259.41Z"/></g><g id="_Groupe_18" data-name="&lt;Groupe&gt;"><path id="_Tracé_140" data-name="&lt;Tracé&gt;" class="cls-6" d="M483.19,308.61s36.86,37.68,16.61,65.85-56.93,36.39-56.93,36.39a282.68,282.68,0,0,1-10.57-40.5c2.64,0,40.9-15.21,46.18-32.82Z"/><g id="_Groupe_19" data-name="&lt;Groupe&gt;"><path id="_Tracé_141" data-name="&lt;Tracé&gt;" class="cls-20" d="M472.05,359.32s0-.14-.07-.37c-12.86,12.1-34.2,18.46-34.2,18.46s1.41,5.16,3.63,13c1.91,6.79,3.25,11.28,3.25,11.28s21-6.64,36.6-19.33C478.09,372.85,472.05,359.32,472.05,359.32Z"/><g id="_Groupe_20" data-name="&lt;Groupe&gt;"><path id="_Tracé_142" data-name="&lt;Tracé&gt;" class="cls-20" d="M494,338a87.48,87.48,0,0,0-12.43-19.65l-1.78,10.91a23.35,23.35,0,0,1,1.57,6.3C485.38,336.2,490.32,337.19,494,338Z"/><path id="_Tracé_143" data-name="&lt;Tracé&gt;" class="cls-20" d="M481.56,337.78a33.63,33.63,0,0,1-.21,4.72c-.66,5.6-3.64,10.56-7.75,14.85l.1.18c2.45,4.19,7.76,17.76,9.78,23,7.33-6.48,13.07-14.41,14.11-23.7a35.33,35.33,0,0,0-2.5-16.27C490.49,339.46,485.29,338.45,481.56,337.78Z"/></g></g><path id="_Tracé_transparent_12" data-name="&lt;Tracé transparent&gt;" class="cls-20" d="M483,309.62l-.83,5.05c.25.31.51.66.79,1l3-2.33C484.57,311.47,483.49,310.16,483,309.62Zm6.65,8.76-3.14,2.18c1.47,2.11,2.85,4.24,4.11,6.32l3.28-2C492.64,322.75,491.21,320.56,489.69,318.38ZM497,330.32l-3.39,1.79a73.25,73.25,0,0,1,3.17,6.75l3.54-1.43C499.4,335.14,498.28,332.75,497,330.32Zm5.39,13.08-3.69,1a35.29,35.29,0,0,1,1.3,7.12l3.82-.26A39.34,39.34,0,0,0,502.4,343.4Zm-2.58,13.89a33.7,33.7,0,0,1-1.67,7l3.59,1.29a36.26,36.26,0,0,0,1.87-7.81Zm-4.06,12.28a45.64,45.64,0,0,1-4.07,6.07l3,2.37a47.21,47.21,0,0,0,4.42-6.6Zm-8,10.48a69.46,69.46,0,0,1-5.53,5l2.41,3a71.6,71.6,0,0,0,5.84-5.26Zm-10.31,8.58c-2,1.37-4.12,2.74-6.32,4l1.93,3.3c2.3-1.36,4.51-2.77,6.57-4.21Zm-11.6,6.95c-2.18,1.14-4.48,2.24-6.79,3.28l1.56,3.5c2.38-1.07,4.73-2.21,7-3.38Zm-12.37,5.62c-4.25,1.68-7.92,2.95-7.94,3l1.21,3.57a43.69,43.69,0,0,0,8.13-3Z"/><path id="_Tracé_transparent_13" data-name="&lt;Tracé transparent&gt;" class="cls-20" d="M479.36,335.46l-.57.17-.31,1.9a17.27,17.27,0,0,1-1.15,2.86l2.66.11c0-.21,0-.41,0-.63A15.54,15.54,0,0,0,479.36,335.46Zm-3.87,10.35a18.78,18.78,0,0,1-4.68,5.42l2.81,2.59a27.77,27.77,0,0,0,4.68-6.72Zm-9,9.42a63,63,0,0,1-6,4.35l2.08,3.21a68.71,68.71,0,0,0,6.37-4.61Zm-11.16,7.44c-2.11,1.18-4.36,2.35-6.7,3.46l1.65,3.45c2.41-1.15,4.73-2.35,6.91-3.57Zm-12.21,6c-4.14,1.77-7,2.76-7,2.76l1.24,3.62c.12,0,3-1,7.28-2.87Z"/></g><g id="_Groupe_21" data-name="&lt;Groupe&gt;"><path id="_Tracé_144" data-name="&lt;Tracé&gt;" class="cls-23" d="M187.32,421l-17.21-47.39v27.29a3.53,3.53,0,0,1-3.52,3.53h0a3.52,3.52,0,0,1-3.52-3.53V367.33a10.42,10.42,0,0,1,13.9-9.82l11.19,7Z"/><path id="_Tracé_145" data-name="&lt;Tracé&gt;" class="cls-23" d="M382.78,420.38,365.57,373v27.3a3.52,3.52,0,0,1-3.52,3.52h0a3.53,3.53,0,0,1-3.52-3.52V366.75a10.41,10.41,0,0,1,13.9-9.82l11.19,6.95Z"/><path id="_Tracé_146" data-name="&lt;Tracé&gt;" class="cls-24" d="M380.77,362.67H191.51a4.19,4.19,0,0,0-4.19,4.19V421a4.2,4.2,0,0,0,4.19,4.2H263.3a6.29,6.29,0,0,0,5.72-3.67L279.84,398a6.94,6.94,0,0,1,12.6,0l10.82,23.54a6.31,6.31,0,0,0,5.73,3.67h71.78A4.2,4.2,0,0,0,385,421v-54.1A4.19,4.19,0,0,0,380.77,362.67Z"/><rect id="_Rectangle_" data-name="&lt;Rectangle&gt;" class="cls-14" x="312.04" y="374.59" width="61.51" height="39.24" rx="5.07" ry="5.07"/><rect id="_Rectangle_2" data-name="&lt;Rectangle&gt;" class="cls-9" x="198.74" y="374.59" width="61.51" height="39.24" rx="5.07" ry="5.07" transform="translate(458.98 788.41) rotate(180)"/><path id="_Tracé_147" data-name="&lt;Tracé&gt;" class="cls-8" d="M189.77,367.87h0a.76.76,0,0,1-.75-.76s.05-3.26,4.73-3.26a.77.77,0,0,1,.76.77.76.76,0,0,1-.76.76c-3.05,0-3.2,1.57-3.2,1.75A.78.78,0,0,1,189.77,367.87Z"/><path id="_Tracé_148" data-name="&lt;Tracé&gt;" class="cls-8" d="M379,365.46H198.73a.77.77,0,0,1-.77-.77.76.76,0,0,1,.77-.76H379a.77.77,0,0,1,.77.76A.78.78,0,0,1,379,365.46Z"/><path id="_Tracé_149" data-name="&lt;Tracé&gt;" class="cls-8" d="M186.29,365.13a.72.72,0,0,1-.4-.12L177,359.55a.77.77,0,0,1,.8-1.31l8.92,5.47a.77.77,0,0,1-.4,1.42Z"/><path id="_Tracé_150" data-name="&lt;Tracé&gt;" class="cls-8" d="M168.79,360.47a.75.75,0,0,1-.62-.32.77.77,0,0,1,.17-1.07,8.1,8.1,0,0,1,6.44-1.59.77.77,0,0,1,.54.94.75.75,0,0,1-.93.54,6.57,6.57,0,0,0-5.15,1.35A.76.76,0,0,1,168.79,360.47Z"/><path id="_Tracé_151" data-name="&lt;Tracé&gt;" class="cls-8" d="M189.17,418.94a.77.77,0,0,1-.76-.77V370.4a.77.77,0,0,1,1.53,0v47.77A.77.77,0,0,1,189.17,418.94Z"/><g id="_Groupe_22" data-name="&lt;Groupe&gt;"><path id="_Tracé_152" data-name="&lt;Tracé&gt;" class="cls-8" d="M335.23,403.39a.75.75,0,0,1-.54-.22.76.76,0,0,1,0-1.08l16.18-16.18A.76.76,0,0,1,352,387l-16.18,16.18A.76.76,0,0,1,335.23,403.39Z"/><path id="_Tracé_153" data-name="&lt;Tracé&gt;" class="cls-8" d="M332.43,397.28a.82.82,0,0,1-.55-.22.79.79,0,0,1,0-1.09l9.81-9.81a.77.77,0,0,1,1.09,1.09L333,397.06A.81.81,0,0,1,332.43,397.28Z"/><path id="_Tracé_154" data-name="&lt;Tracé&gt;" class="cls-8" d="M345,403a.78.78,0,0,1-.54-.23.76.76,0,0,1,0-1.08l9.81-9.81a.77.77,0,0,1,1.08,1.09l-9.81,9.8A.74.74,0,0,1,345,403Z"/></g><g id="_Groupe_23" data-name="&lt;Groupe&gt;"><path id="_Tracé_155" data-name="&lt;Tracé&gt;" class="cls-8" d="M219.62,403.39a.75.75,0,0,1-.54-.22.76.76,0,0,1,0-1.08l16.18-16.18a.76.76,0,0,1,1.08,1.08l-16.18,16.18A.75.75,0,0,1,219.62,403.39Z"/><path id="_Tracé_156" data-name="&lt;Tracé&gt;" class="cls-8" d="M216.82,397.28a.79.79,0,0,1-.54-.22.77.77,0,0,1,0-1.09l9.81-9.81a.77.77,0,0,1,1.08,1.09l-9.81,9.81A.81.81,0,0,1,216.82,397.28Z"/><path id="_Tracé_157" data-name="&lt;Tracé&gt;" class="cls-8" d="M229.37,403a.74.74,0,0,1-.54-.23.76.76,0,0,1,0-1.08l9.8-9.81a.77.77,0,1,1,1.09,1.09l-9.81,9.8A.78.78,0,0,1,229.37,403Z"/></g></g></g></g></g></g></g></svg>