<svg xmlns="http://www.w3.org/2000/svg" viewBox="0 0 73.58 102.24"><defs><style>.cls-1{fill:#3f4040;}.cls-2{fill:#c6d4dc;}</style></defs><title>pellicule</title><g id="Calque_2" data-name="Calque 2"><g id="Layer_1" data-name="Layer 1"><g id="_Groupe_" data-name="&lt;Groupe&gt;"><g id="_Groupe_2" data-name="&lt;Groupe&gt;"><g id="_Groupe_3" data-name="&lt;Groupe&gt;"><path id="_Tracé_" data-name="&lt;Tracé&gt;" class="cls-1" d="M50.89,0S87.75,37.67,67.5,65.85s-56.93,36.39-56.93,36.39A282.68,282.68,0,0,1,0,61.74c2.64,0,40.9-15.21,46.18-32.82Z"/><g id="_Groupe_4" data-name="&lt;Groupe&gt;"><path id="_Tracé_2" data-name="&lt;Tracé&gt;" class="cls-2" d="M39.75,50.7s0-.14-.07-.36C26.82,62.44,5.48,68.79,5.48,68.79S6.89,74,9.11,81.85c1.91,6.78,3.25,11.27,3.25,11.27s21-6.64,36.6-19.32C45.79,64.23,39.75,50.7,39.75,50.7Z"/><g id="_Groupe_5" data-name="&lt;Groupe&gt;"><path id="_Tracé_3" data-name="&lt;Tracé&gt;" class="cls-2" d="M61.74,29.36A87.56,87.56,0,0,0,49.31,9.7L47.53,20.62a23.26,23.26,0,0,1,1.57,6.3C53.08,27.58,58,28.58,61.74,29.36Z"/><path id="_Tracé_4" data-name="&lt;Tracé&gt;" class="cls-2" d="M49.26,29.16a33.77,33.77,0,0,1-.21,4.73c-.66,5.6-3.64,10.55-7.75,14.85,0,.06.07.11.1.18,2.45,4.18,7.76,17.76,9.78,23,7.33-6.49,13.07-14.41,14.11-23.7a35.37,35.37,0,0,0-2.5-16.28C58.19,30.84,53,29.84,49.26,29.16Z"/></g></g><path id="_Tracé_transparent_" data-name="&lt;Tracé transparent&gt;" class="cls-2" d="M50.74,1l-.83,5.06.79,1,3-2.32C52.27,2.85,51.2,1.55,50.74,1Zm6.65,8.76L54.25,12c1.47,2.11,2.85,4.23,4.11,6.31l3.28-2C60.34,14.14,58.91,11.94,57.39,9.76Zm7.32,12-3.39,1.78a73.38,73.38,0,0,1,3.17,6.76L68,28.81C67.1,26.53,66,24.14,64.71,21.71ZM70.1,34.79l-3.69,1a35.08,35.08,0,0,1,1.3,7.11l3.82-.26A39.37,39.37,0,0,0,70.1,34.79ZM67.52,48.68a33.7,33.7,0,0,1-1.67,7L69.44,57a36,36,0,0,0,1.87-7.8ZM63.46,61A45.09,45.09,0,0,1,59.39,67l3,2.37a48.1,48.1,0,0,0,4.41-6.61Zm-8,10.49a69.38,69.38,0,0,1-5.53,5l2.41,3a73.49,73.49,0,0,0,5.84-5.26ZM45.16,80c-2,1.38-4.12,2.74-6.32,4l1.93,3.29c2.3-1.35,4.51-2.76,6.57-4.2Zm-11.6,7c-2.18,1.14-4.48,2.24-6.79,3.28l1.56,3.49c2.38-1.07,4.73-2.21,7-3.38ZM21.19,92.59c-4.25,1.67-7.92,3-7.94,3l1.21,3.57a43.32,43.32,0,0,0,8.13-3Z"/><path id="_Tracé_transparent_2" data-name="&lt;Tracé transparent&gt;" class="cls-2" d="M47.06,26.85l-.57.16-.31,1.91A17.62,17.62,0,0,1,45,31.78l2.66.1c0-.2,0-.41,0-.62A15.49,15.49,0,0,0,47.06,26.85ZM43.19,37.2a18.78,18.78,0,0,1-4.68,5.42l2.81,2.59A27.68,27.68,0,0,0,46,38.49Zm-9,9.41a63.06,63.06,0,0,1-6,4.36l2.08,3.21a66.92,66.92,0,0,0,6.37-4.62ZM23.07,54.06c-2.11,1.17-4.36,2.34-6.7,3.46L18,61c2.41-1.16,4.73-2.36,6.91-3.57ZM10.86,60c-4.13,1.77-7,2.75-7,2.76l1.24,3.61c.12,0,3-1,7.28-2.86Z"/></g></g></g></g></g></svg>