<svg xmlns="http://www.w3.org/2000/svg" viewBox="0 0 246.53 327.92"><defs><style>.cls-1{fill:#a13d30;}.cls-2{fill:#f7d977;}.cls-3{fill:#c84b3b;}.cls-4{fill:#d1d3d4;}.cls-5{fill:#fff;}.cls-6{fill:#df5a49;}.cls-7{fill:#efb64c;}</style></defs><title>popcorn</title><g id="Calque_2" data-name="Calque 2"><g id="Layer_1" data-name="Layer 1"><g id="_Groupe_" data-name="&lt;Groupe&gt;"><g id="_Groupe_2" data-name="&lt;Groupe&gt;"><g id="_Groupe_3" data-name="&lt;Groupe&gt;"><path id="_Tracé_" data-name="&lt;Tracé&gt;" class="cls-1" d="M0,53.12,183.14,45.2a13.91,13.91,0,0,1,7.48-.22c3.52,1.1,4.84,5.28,4.84,5.28s4.52-2.36,8.15-1.1c5.72,2,6.16,5.5,6.16,5.5a17.31,17.31,0,0,1,7.93-1.1c5.94.88,8.14,6.39,8.14,6.39s6.31-2.35,11,0,9.68,9,9.68,9L56.92,78.32Z"/><path id="_Tracé_2" data-name="&lt;Tracé&gt;" class="cls-2" d="M227.45,50.19a14.52,14.52,0,0,0-1.48.08c0-.12,0-.25,0-.38a13.49,13.49,0,0,0-10.32-13.1,13.46,13.46,0,0,0-19.62-6.61,12.3,12.3,0,0,0-8.94-4.33,12.3,12.3,0,0,0-18.7-8.72,12.3,12.3,0,0,0-18.65-9.47,12.32,12.32,0,0,0-19.31.49,12.31,12.31,0,0,0-22.21-2.06A12.31,12.31,0,0,0,91.15,9.83,12.32,12.32,0,0,0,71,19.37c0,.44,0,.87.07,1.3a12.24,12.24,0,0,0-14.48,1,13.49,13.49,0,0,0-21,9.37,12.17,12.17,0,0,0-19.5,9.72c0,.2,0,.4,0,.6A11.72,11.72,0,0,0,4.7,53.12q0,.63.06,1.23c-.81.53-1.24.83-1.24.83A28.86,28.86,0,0,0,6.2,58.86,11.88,11.88,0,0,0,10,63a66.21,66.21,0,0,0,13.46,9.84c14.67,8.21,74,15.84,110.94,14.67,24.36-.77,59.94-10.47,81.38-17a13.49,13.49,0,1,0,11.65-20.28Z"/><path id="_Tracé_3" data-name="&lt;Tracé&gt;" class="cls-3" d="M78.93,322.53c-3.06-1.72-6.63-3.78-10.44-6-1-25.38-7.27-139.7-38.4-250a21.43,21.43,0,0,1,7.11-.11,6.75,6.75,0,0,1,5.31,5.61C70.45,178.7,77.51,292.9,78.93,322.53Z"/><path id="_Tracé_4" data-name="&lt;Tracé&gt;" class="cls-3" d="M57.39,309.54c-3.59-2.35-7.12-4.79-10.36-7.23C44.93,267.57,35.61,143.63,5.55,55.58a9.62,9.62,0,0,1,6.35.17c3.57,1.27,5.52,5.08,5.52,5.08C48.15,163.32,55.65,280.26,57.39,309.54Z"/><path id="_Tracé_5" data-name="&lt;Tracé&gt;" class="cls-4" d="M56.92,78.32s-3.21-6-7.17-7.59a7.64,7.64,0,0,0-7.24,1.21c27.94,106.76,35,221,36.42,250.59,5.82,3.26,9.78,5.3,9.78,5.3C84.27,200.44,63.18,104.62,58.05,83Z"/><path id="_Tracé_6" data-name="&lt;Tracé&gt;" class="cls-4" d="M68.49,316.48c-3.59-2.15-7.39-4.5-11.1-6.94-1.74-29.28-9.24-146.22-40-248.71a8.67,8.67,0,0,1,6.57.22,15,15,0,0,1,6.1,5.39C61.22,176.78,67.45,291.1,68.49,316.48Z"/><path id="_Tracé_7" data-name="&lt;Tracé&gt;" class="cls-4" d="M47,302.31c-2.36-1.78-4.57-3.55-6.53-5.3C28.18,157,0,53.12,0,53.12a4,4,0,0,1,3.08-.66c1.76.37,2.47,3.12,2.47,3.12C35.61,143.63,44.93,267.57,47,302.31Z"/><path id="_Tracé_8" data-name="&lt;Tracé&gt;" class="cls-5" d="M56.92,78.32S83.64,182.55,88.7,327.83c41.61.88,82.11-5,111.17-11.45C219.53,163.18,246.53,69,246.53,69Z"/><path id="_Tracé_9" data-name="&lt;Tracé&gt;" class="cls-5" d="M140.76,325.72c-8.76.86-17.8,1.5-27,1.86-.64-35-4.21-160.75-23.32-250.91,0,0,4.95-6.82,17.87-8a31.42,31.42,0,0,1,21.56,6C137.87,149,140.27,289.48,140.76,325.72Z"/><path id="_Tracé_10" data-name="&lt;Tracé&gt;" class="cls-5" d="M212.44,70.65c-12.39,73-24.05,192.52-27.54,248.8-6.69,1.26-13.8,2.44-21.24,3.51.13-27.82,4.73-174.95,7.05-250.25a34.84,34.84,0,0,1,20.65-7.26C205.74,65.45,212.44,70.65,212.44,70.65Z"/><path id="_Tracé_11" data-name="&lt;Tracé&gt;" class="cls-6" d="M113.75,327.58c-8.24.33-16.63.42-25,.25C83.64,182.55,56.92,78.32,56.92,78.32s2.07-7.59,15-8.47,18.52,6.82,18.52,6.82C109.54,166.83,113.11,292.62,113.75,327.58Z"/><path id="_Tracé_12" data-name="&lt;Tracé&gt;" class="cls-6" d="M170.71,72.71c-2.32,75.3-6.92,222.43-7.05,250.25-7.34,1.06-15,2-22.9,2.76-.49-36.24-2.89-176.68-10.9-251,0,0,4.26-6.63,18.94-7.8S170.71,72.71,170.71,72.71Z"/><path id="_Tracé_13" data-name="&lt;Tracé&gt;" class="cls-6" d="M246.53,69s-27,94.21-46.66,247.41c-4.7,1.05-9.71,2.08-15,3.07,3.49-56.28,15.15-175.81,27.54-248.8,0,0,7.09-5.35,15.6-5.64S246.53,69,246.53,69Z"/><path id="_Tracé_14" data-name="&lt;Tracé&gt;" class="cls-5" d="M60.75,87a1.15,1.15,0,0,1-1.12-.9c-.57-2.58-1.15-4.77-1.16-4.79a1.15,1.15,0,0,1,2.22-.59s.6,2.25,1.18,4.89A1.15,1.15,0,0,1,61,87Z"/><path id="_Tracé_15" data-name="&lt;Tracé&gt;" class="cls-5" d="M59.87,78.77a1.17,1.17,0,0,1-.72-.25A1.14,1.14,0,0,1,59,76.91c.09-.12,9.75-11.77,28.27-2.36a1.15,1.15,0,0,1-1,2C69.33,68,60.85,78.24,60.77,78.35A1.15,1.15,0,0,1,59.87,78.77Z"/><path id="_Tracé_16" data-name="&lt;Tracé&gt;" class="cls-5" d="M91.57,325a1.15,1.15,0,0,1-1.15-1.09C83.76,182.3,61.91,93.61,61.69,92.73a1.15,1.15,0,0,1,2.23-.56c.22.88,22.12,89.8,28.79,231.64a1.14,1.14,0,0,1-1.09,1.2Z"/><path id="_Tracé_17" data-name="&lt;Tracé&gt;" class="cls-5" d="M133,76.06a1.15,1.15,0,0,1-.78-2c1-.9,4.23-3.84,6.28-3.84a1.15,1.15,0,0,1,0,2.3c-.76,0-3.1,1.69-4.71,3.21A1.14,1.14,0,0,1,133,76.06Z"/><path id="_Tracé_18" data-name="&lt;Tracé&gt;" class="cls-5" d="M167.07,75a1.12,1.12,0,0,1-.53-.13A34.3,34.3,0,0,0,143.6,71.4a1.16,1.16,0,0,1-1.41-.81,1.13,1.13,0,0,1,.8-1.4c.48-.14,11.81-3.13,24.61,3.61a1.15,1.15,0,0,1-.53,2.16Z"/><path id="_Tracé_19" data-name="&lt;Tracé&gt;" class="cls-5" d="M214.4,73.42a1.13,1.13,0,0,1-1-.52,1.14,1.14,0,0,1,.32-1.59,45.21,45.21,0,0,1,4.9-2.82,1.15,1.15,0,1,1,.86,2.13A39.22,39.22,0,0,0,215,73.23,1.16,1.16,0,0,1,214.4,73.42Z"/><path id="_Tracé_20" data-name="&lt;Tracé&gt;" class="cls-5" d="M242.57,72.32a1.1,1.1,0,0,1-.47-.1c-10.64-4.8-17.48-2.9-17.55-2.88a1.15,1.15,0,0,1-1.42-.78,1.14,1.14,0,0,1,.77-1.42c.3-.09,7.66-2.19,19.14,3a1.15,1.15,0,0,1-.47,2.19Z"/><path id="_Tracé_21" data-name="&lt;Tracé&gt;" class="cls-5" d="M31.4,68.41a.75.75,0,0,1-.74-.6.77.77,0,0,1,.58-.91A11.32,11.32,0,0,1,33,66.66a.77.77,0,0,1,.76.77.76.76,0,0,1-.76.76,9,9,0,0,0-1.46.21Z"/><path id="_Tracé_22" data-name="&lt;Tracé&gt;" class="cls-5" d="M40.87,72.23a.75.75,0,0,1-.7-.46,4.6,4.6,0,0,0-4.05-3.06.77.77,0,1,1,0-1.53,6.09,6.09,0,0,1,5.49,4,.77.77,0,0,1-.4,1A.8.8,0,0,1,40.87,72.23Z"/><path id="_Tracé_23" data-name="&lt;Tracé&gt;" class="cls-5" d="M6.75,57.19a.77.77,0,0,1-.28-1.48,3.4,3.4,0,0,1,2-.1.77.77,0,1,1-.4,1.48,2,2,0,0,0-1.06,0A.67.67,0,0,1,6.75,57.19Z"/><path id="_Tracé_24" data-name="&lt;Tracé&gt;" class="cls-5" d="M16.44,62a.78.78,0,0,1-.63-.33c-2.33-3.32-4.24-3.87-4.26-3.88a.78.78,0,0,1-.55-.93.77.77,0,0,1,.92-.55c.1,0,2.44.62,5.14,4.48a.77.77,0,0,1-.19,1.07A.76.76,0,0,1,16.44,62Z"/><path id="_Tracé_25" data-name="&lt;Tracé&gt;" class="cls-7" d="M110.06,13.94s8.8-8.51,8.8-1.61S114.46,18.78,110.06,13.94Z"/><path id="_Tracé_26" data-name="&lt;Tracé&gt;" class="cls-7" d="M187,41.73s6.46-6.24,6.46-1.19S190.18,45.28,187,41.73Z"/><path id="_Tracé_27" data-name="&lt;Tracé&gt;" class="cls-7" d="M82.89,33.17S74,34.45,77,30.35,82.35,28.4,82.89,33.17Z"/><path id="_Tracé_28" data-name="&lt;Tracé&gt;" class="cls-7" d="M137.06,20.84s4.7-3.52,5.28-.59-2.35,4.4-.58,5,7.63,5.28,2.05,5.87-5-4.11-7.34-4.11-7.63,2.06-7.92-.59,5-4.1,5-4.1-5.87-5.87-2.06-6.46S137.06,20.84,137.06,20.84Z"/><path id="_Tracé_29" data-name="&lt;Tracé&gt;" class="cls-7" d="M54.07,45.25s4.93-1.62,4.58,1-3.21,3-1.9,4,4.88,6.59,0,5.5-3-4.85-5-5.52-7-.44-6.47-2.73,5.34-2,5.34-2-3.24-6.58.12-6S54.07,45.25,54.07,45.25Z"/><path id="_Tracé_30" data-name="&lt;Tracé&gt;" class="cls-7" d="M114.68,45.2a6.11,6.11,0,0,0,5.28,2c3.31-.44,6.83-3.52,5.73.22s-1.76,5.06-5.07,3.52-4.4,1.1-6.16-1.32A3.37,3.37,0,0,1,114.68,45.2Z"/><path id="_Tracé_31" data-name="&lt;Tracé&gt;" class="cls-7" d="M79.46,55a6.12,6.12,0,0,0,5.29,2c3.3-.44,6.82-3.52,5.72.22s-1.76,5.06-5.06,3.52-4.41,1.1-6.17-1.32A3.37,3.37,0,0,1,79.46,55Z"/><path id="_Tracé_32" data-name="&lt;Tracé&gt;" class="cls-7" d="M160.76,29.79a6.11,6.11,0,0,0,5.28,2c3.3-.44,6.83-3.52,5.73.22s-1.77,5.06-5.07,3.52-4.4,1.1-6.16-1.32A3.37,3.37,0,0,1,160.76,29.79Z"/><path id="_Tracé_33" data-name="&lt;Tracé&gt;" class="cls-7" d="M116.66,30A6.12,6.12,0,0,0,122,32c3.3-.44,6.82-3.52,5.72.22s-1.76,5.06-5.06,3.52-4.41,1.1-6.17-1.32A3.37,3.37,0,0,1,116.66,30Z"/><path id="_Tracé_34" data-name="&lt;Tracé&gt;" class="cls-7" d="M56.79,60.31a6.11,6.11,0,0,0,5.28,2c3.3-.44,6.83-3.52,5.73.22S66,67.58,62.73,66s-4.4,1.1-6.16-1.33A3.37,3.37,0,0,1,56.79,60.31Z"/><path id="_Tracé_35" data-name="&lt;Tracé&gt;" class="cls-7" d="M86,16.8a6.12,6.12,0,0,0,5.29,2c3.3-.44,6.82-3.52,5.72.22s-1.76,5.07-5.06,3.53-4.41,1.1-6.17-1.33A3.37,3.37,0,0,1,86,16.8Z"/><path id="_Tracé_36" data-name="&lt;Tracé&gt;" class="cls-7" d="M67.5,41.75a6.12,6.12,0,0,0,5.29,2c3.3-.44,6.82-3.52,5.72.22S76.75,49,73.45,47.47s-4.41,1.1-6.17-1.32A3.37,3.37,0,0,1,67.5,41.75Z"/><path id="_Tracé_37" data-name="&lt;Tracé&gt;" class="cls-7" d="M183.43,50.55a6.08,6.08,0,0,0,5.28,2c3.31-.44,6.83-3.52,5.73.22s-1.76,5.07-5.07,3.53-4.4,1.1-6.16-1.32A3.38,3.38,0,0,1,183.43,50.55Z"/><path id="_Tracé_38" data-name="&lt;Tracé&gt;" class="cls-7" d="M162.3,52.83s-5.28-3.52-6.46-.3,3.53,4.41,4.7,4.41-4.11,6.75,1.76,6.75,3.52-5.58,3.52-5.58,9.1.59,7.05-2a8.7,8.7,0,0,0-5.58-2.94s2.35-5-1.17-5S162.3,52.83,162.3,52.83Z"/><path id="_Tracé_39" data-name="&lt;Tracé&gt;" class="cls-7" d="M206.32,50.48S201,47,199.87,50.19s3.52,4.4,4.69,4.4-4.11,6.75,1.76,6.75,3.53-5.58,3.53-5.58,9.09.59,7-2a8.7,8.7,0,0,0-5.58-2.94s2.35-5-1.17-5S206.32,50.48,206.32,50.48Z"/><path id="_Tracé_40" data-name="&lt;Tracé&gt;" class="cls-7" d="M100.73,28.69s-4.4-2.93-5.38-.24,2.93,3.66,3.91,3.66-3.42,5.62,1.47,5.62,2.93-4.64,2.93-4.64,7.57.49,5.86-1.71a7.19,7.19,0,0,0-4.64-2.44s2-4.16-1-4.16S100.73,28.69,100.73,28.69Z"/><path id="_Tracé_41" data-name="&lt;Tracé&gt;" class="cls-7" d="M135.28,60s5.19,1,5-1.87-4.13-2.23-5-1.85,1-6.51-3.54-4.6-.89,5.41-.89,5.41-7.16,2.51-4.73,3.86a7.21,7.21,0,0,0,5.23.44s-.18,4.59,2.52,3.45S135.28,60,135.28,60Z"/><path id="_Tracé_42" data-name="&lt;Tracé&gt;" class="cls-7" d="M28.76,47.35s-4.4-2.93-5.37-.24,2.93,3.66,3.9,3.66-3.42,5.62,1.47,5.62,2.93-4.64,2.93-4.64,7.58.49,5.87-1.71a7.2,7.2,0,0,0-4.65-2.44s2-4.16-1-4.16S28.76,47.35,28.76,47.35Z"/><path id="_Tracé_43" data-name="&lt;Tracé&gt;" class="cls-7" d="M102.32,55.32s-5.28-.19-4.7,2.61S102,59.51,102.87,59s0,6.58,4.19,4,.06-5.49.06-5.49,6.71-3.55,4.1-4.53a7.21,7.21,0,0,0-5.23.36s-.52-4.56-3-3S102.32,55.32,102.32,55.32Z"/><path id="_Tracé_44" data-name="&lt;Tracé&gt;" class="cls-7" d="M96.41,50s.88-5.5,5.28-4.62C101.69,45.42,92.23,39.69,96.41,50Z"/><path id="_Tracé_45" data-name="&lt;Tracé&gt;" class="cls-7" d="M140.66,50.48s.88-5.5,5.28-4.62C145.94,45.86,136.47,40.13,140.66,50.48Z"/><path id="_Tracé_46" data-name="&lt;Tracé&gt;" class="cls-7" d="M170.5,22.38s-5,2.53-6.84-1.54C163.66,20.84,164.6,31.86,170.5,22.38Z"/><path id="_Tracé_47" data-name="&lt;Tracé&gt;" class="cls-7" d="M48.72,26.65s5.53-.72,5.93,3.75C54.65,30.4,57.46,19.7,48.72,26.65Z"/><path id="_Tracé_48" data-name="&lt;Tracé&gt;" class="cls-5" d="M6.38,53.89a.57.57,0,0,1-.18,0,.76.76,0,0,1-.56-.92c.09-.35,2.18-8.69,8.17-9.16a.76.76,0,1,1,.12,1.52c-4.9.39-6.78,7.93-6.8,8A.78.78,0,0,1,6.38,53.89Z"/><path id="_Tracé_49" data-name="&lt;Tracé&gt;" class="cls-5" d="M19.15,40.68l-.2,0a.76.76,0,0,1-.54-.93l.88-3.3a.78.78,0,0,1,.94-.55.77.77,0,0,1,.54.94l-.88,3.3A.77.77,0,0,1,19.15,40.68Z"/><path id="_Tracé_50" data-name="&lt;Tracé&gt;" class="cls-5" d="M22.89,34.07a.72.72,0,0,1-.51-.2.75.75,0,0,1-.05-1.07c.05-.06,5.15-5.51,11.57-1A.76.76,0,0,1,33,33.06a7.12,7.12,0,0,0-9.56.77A.8.8,0,0,1,22.89,34.07Z"/><path id="_Tracé_51" data-name="&lt;Tracé&gt;" class="cls-5" d="M46.08,41H46a.76.76,0,0,1-.65-.86c.07-.5.8-4.91,3.58-5.34,4.88-.76,6.2,1.14,6.74,4.44a.78.78,0,0,1-.63.88.76.76,0,0,1-.88-.63c-.43-2.62-1.06-3.79-5-3.18-1.42.22-2.15,3.07-2.3,4A.75.75,0,0,1,46.08,41Z"/><path id="_Tracé_52" data-name="&lt;Tracé&gt;" class="cls-5" d="M107.86,26.59a.77.77,0,0,1-.77-.76,7.8,7.8,0,0,0-1-3.74c-.54-.75-2.71-.53-4-.15a.77.77,0,1,1-.43-1.47c.44-.13,4.3-1.2,5.68.73a9.22,9.22,0,0,1,1.24,4.63.76.76,0,0,1-.76.76Z"/><path id="_Tracé_53" data-name="&lt;Tracé&gt;" class="cls-5" d="M112.48,33.42a.78.78,0,0,1-.66-1.15c.44-.78-.52-3-1.31-4.28a.77.77,0,0,1,.24-1,.78.78,0,0,1,1.06.24c.41.66,2.39,4,1.33,5.85A.76.76,0,0,1,112.48,33.42Z"/><path id="_Tracé_54" data-name="&lt;Tracé&gt;" class="cls-5" d="M73.3,20.43a.76.76,0,0,1-.21,0,.77.77,0,0,1-.53-.95l.88-3.08a.77.77,0,0,1,1-.52.75.75,0,0,1,.52.94L74,19.87A.76.76,0,0,1,73.3,20.43Z"/><path id="_Tracé_55" data-name="&lt;Tracé&gt;" class="cls-5" d="M76.16,13.38a.74.74,0,0,1-.55-.23.77.77,0,0,1,0-1.08c.07-.07,7.38-7,14-1.81a.76.76,0,0,1-.94,1.2c-5.58-4.38-11.93,1.65-12,1.71A.77.77,0,0,1,76.16,13.38Z"/><path id="_Tracé_56" data-name="&lt;Tracé&gt;" class="cls-5" d="M37.57,31.73a.64.64,0,0,1-.2,0,.77.77,0,0,1-.54-.94l.88-3.23a.77.77,0,0,1,.94-.53.75.75,0,0,1,.53.94l-.88,3.22A.77.77,0,0,1,37.57,31.73Z"/><path id="_Tracé_57" data-name="&lt;Tracé&gt;" class="cls-5" d="M41.09,26.3a.92.92,0,0,1-.28-.05.76.76,0,0,1-.43-1c0-.08,3-7.39,14-3.68A.77.77,0,0,1,53.9,23c-9.61-3.25-12.08,2.72-12.1,2.78A.78.78,0,0,1,41.09,26.3Z"/><path id="_Tracé_58" data-name="&lt;Tracé&gt;" class="cls-5" d="M92,49.7a.75.75,0,0,1-.73-.54c-.13-.44-1.19-4.27.67-5.86a.76.76,0,0,1,1.08.08A.77.77,0,0,1,93,44.46c-.88.75-.52,3.2-.21,4.26a.76.76,0,0,1-.51,1Z"/><path id="_Tracé_59" data-name="&lt;Tracé&gt;" class="cls-5" d="M156.72,33.86a.79.79,0,0,1-.7-.46c-.14-.33-1.34-3.23-.25-5.12a3,3,0,0,1,2.41-1.45.76.76,0,0,1,.17,1.52,1.55,1.55,0,0,0-1.26.69c-.6,1.05.06,3.11.33,3.75a.75.75,0,0,1-.39,1A.67.67,0,0,1,156.72,33.86Z"/><path id="_Tracé_60" data-name="&lt;Tracé&gt;" class="cls-5" d="M45.35,51.91h-.06c-2.73-.21-4.65-1.7-5.13-4a5.42,5.42,0,0,1,2.62-5.82.76.76,0,0,1,1,.32.75.75,0,0,1-.32,1,3.91,3.91,0,0,0-1.84,4.15c.34,1.61,1.7,2.62,3.74,2.78a.77.77,0,0,1,0,1.53Z"/><path id="_Tracé_61" data-name="&lt;Tracé&gt;" class="cls-5" d="M118.7,43.37c-2,0-4.3-2.21-4.78-2.69A.77.77,0,0,1,115,39.59c1.06,1.06,3,2.46,3.9,2.22a.77.77,0,1,1,.37,1.49A2.78,2.78,0,0,1,118.7,43.37Z"/><path id="_Tracé_62" data-name="&lt;Tracé&gt;" class="cls-5" d="M128.33,46h-.09a.76.76,0,0,1-.67-.85c.14-1.18,0-2-.54-2.34-.94-.7-3,0-3.67.26a.76.76,0,1,1-.62-1.39c.34-.15,3.38-1.44,5.2-.1,1,.72,1.36,2,1.15,3.75A.77.77,0,0,1,128.33,46Z"/><path id="_Tracé_63" data-name="&lt;Tracé&gt;" class="cls-5" d="M110.5,7a.75.75,0,0,1-.54-.22.76.76,0,0,1,0-1.08l1.76-1.76A.76.76,0,0,1,112.8,5L111,6.78A.76.76,0,0,1,110.5,7Z"/><path id="_Tracé_64" data-name="&lt;Tracé&gt;" class="cls-5" d="M128.33,9.2a.77.77,0,0,1-.63-.32c-5.88-8.32-12-5.19-12.21-5.05a.77.77,0,0,1-1-.31.78.78,0,0,1,.3-1c.08,0,7.5-4,14.2,5.52a.76.76,0,0,1-.18,1.06A.72.72,0,0,1,128.33,9.2Z"/><path id="_Tracé_65" data-name="&lt;Tracé&gt;" class="cls-5" d="M150.34,10.74a.75.75,0,0,1-.72-.52.76.76,0,0,1,.48-1l3.3-1.1a.78.78,0,0,1,1,.49.76.76,0,0,1-.49,1l-3.3,1.1A.67.67,0,0,1,150.34,10.74Z"/><path id="_Tracé_66" data-name="&lt;Tracé&gt;" class="cls-5" d="M166,17.79a.77.77,0,0,1-.72-.51c-2.66-7.35-8.93-7.64-9-7.64a.77.77,0,0,1,.05-1.53c.3,0,7.37.34,10.38,8.65a.76.76,0,0,1-.46,1A.85.85,0,0,1,166,17.79Z"/><path id="_Tracé_67" data-name="&lt;Tracé&gt;" class="cls-5" d="M197.67,33a.77.77,0,0,1-.26-1.49l3.08-1.1a.76.76,0,1,1,.51,1.44l-3.08,1.1A.74.74,0,0,1,197.67,33Z"/><path id="_Tracé_68" data-name="&lt;Tracé&gt;" class="cls-5" d="M212.85,38.7a.77.77,0,0,1-.68-.42c-3.61-7-8-6.24-8.19-6.2a.77.77,0,0,1-.31-1.5c.23,0,5.68-1.13,9.86,7a.75.75,0,0,1-.33,1A.73.73,0,0,1,212.85,38.7Z"/><path id="_Tracé_69" data-name="&lt;Tracé&gt;" class="cls-5" d="M179.18,56.31a.76.76,0,0,1-.56-.24c-.25-.27-2.43-2.64-2.14-4.82a2.84,2.84,0,0,1,1.41-2.08.77.77,0,0,1,1.06.25.76.76,0,0,1-.25,1,1.33,1.33,0,0,0-.71,1c-.16,1.24,1.24,3,1.74,3.57a.76.76,0,0,1,0,1.08A.77.77,0,0,1,179.18,56.31Z"/><path id="_Tracé_70" data-name="&lt;Tracé&gt;" class="cls-5" d="M205.15,44.64a.73.73,0,0,1-.56-.25.76.76,0,0,1,0-1.08c.12-.11,3-2.7,5.58-1.93a.77.77,0,0,1-.44,1.47c-1.46-.44-3.46,1-4.1,1.59A.81.81,0,0,1,205.15,44.64Z"/><path id="_Tracé_71" data-name="&lt;Tracé&gt;" class="cls-5" d="M216.15,50.14a.8.8,0,0,1-.3-.06.77.77,0,0,1-.39-1c.55-1.25-.88-3.39-1.43-4a.77.77,0,1,1,1.17-1c.28.33,2.7,3.3,1.65,5.65A.76.76,0,0,1,216.15,50.14Z"/><path id="_Tracé_72" data-name="&lt;Tracé&gt;" class="cls-5" d="M170.52,49.19a.77.77,0,0,1-.74-1c.36-1.3-.09-1.78-.23-1.94-1.2-1.28-5-.87-6.22-.63a.77.77,0,0,1-.77-.3.78.78,0,0,1-.05-.82c1-1.83-1.76-3.67-2.17-3.93a2,2,0,0,0-1.63,0,4.67,4.67,0,0,0-1.91,2.61.77.77,0,0,1-.87.53,4.46,4.46,0,0,0-3.82.72,5.42,5.42,0,0,0-1.45,3.78.76.76,0,0,1-1.52.06,6.86,6.86,0,0,1,2-5,5.66,5.66,0,0,1,4.46-1.17A5.72,5.72,0,0,1,158,39.24a3.52,3.52,0,0,1,2.93,0l.11.06c1.41.84,3.38,2.63,3.19,4.71,1.78-.21,4.93-.31,6.4,1.27a3.37,3.37,0,0,1,.58,3.39A.76.76,0,0,1,170.52,49.19Z"/><path id="_Tracé_73" data-name="&lt;Tracé&gt;" class="cls-5" d="M120,64.75a.76.76,0,0,1-.51-.2c-3.63-3.22-3.2-6.26-2.62-7.78s1.7-2.65,2.54-2.65a.76.76,0,0,1,.09,1.52,3.86,3.86,0,0,0-1.42,2.46c-.31,1.78.52,3.62,2.42,5.31a.77.77,0,0,1-.5,1.34Z"/><path id="_Tracé_74" data-name="&lt;Tracé&gt;" class="cls-5" d="M75.43,63.57a.79.79,0,0,1-.46-.15,6.71,6.71,0,0,1-3-4.87c-.29-3.47,2.46-6.42,2.58-6.54a.76.76,0,0,1,1.11,1.05s-2.41,2.58-2.17,5.37a5.32,5.32,0,0,0,2.37,3.77A.77.77,0,0,1,76,63.27.76.76,0,0,1,75.43,63.57Z"/><path id="_Tracé_75" data-name="&lt;Tracé&gt;" class="cls-5" d="M96,61.22a.76.76,0,0,1-.73-.54c-.16-.53-1.49-5.25.29-7.49a3,3,0,0,1,1.85-1.07A5.43,5.43,0,0,1,98,48.65c.86-1.53,2.51-2.55,4.9-3s4.06-.18,5.34.8a4.45,4.45,0,0,1,1.56,2.29c1.12-.16,3.16-.26,4.44.88a3.6,3.6,0,0,1,1,3.33.76.76,0,0,1-.85.67.78.78,0,0,1-.67-.86,2.15,2.15,0,0,0-.51-2c-1-.86-3.14-.56-3.83-.39a.75.75,0,0,1-.94-.69,3.19,3.19,0,0,0-1.15-2,5.08,5.08,0,0,0-4.1-.5c-1.93.39-3.23,1.15-3.87,2.28A4.27,4.27,0,0,0,99,52.57a.78.78,0,0,1-.11.72.76.76,0,0,1-.66.3,1.63,1.63,0,0,0-1.54.55c-1.09,1.37-.37,5,0,6.1a.76.76,0,0,1-.51.95A.83.83,0,0,1,96,61.22Z"/><path id="_Tracé_76" data-name="&lt;Tracé&gt;" class="cls-5" d="M95.53,33.42l-.18,0c-1.82-.43-5.16-2.31-4.76-6.32a3.65,3.65,0,0,1,1.58-2.82c2.25-1.55,6-.52,6.21-.48A.76.76,0,0,1,98,25.24c-.91-.24-3.56-.68-4.94.27a2.2,2.2,0,0,0-.92,1.71c-.37,3.67,3.44,4.65,3.6,4.69a.77.77,0,0,1-.18,1.51Z"/><path id="_Tracé_77" data-name="&lt;Tracé&gt;" class="cls-5" d="M128.15,32.54a3.27,3.27,0,0,1-.54,0,5.11,5.11,0,0,1-3.53-2.76c-2.16-3.6.59-7.06,2.79-8.77-.83-1.16-2.31-3.65-1.69-6,.42-1.55,1.66-2.7,3.7-3.41,5.79-2,8.87,1.39,9.92,2.93a7,7,0,0,1,7.23.71c4,3,1.23,8.9,1.11,9.15a.76.76,0,1,1-1.38-.65s2.33-5-.65-7.28a5.48,5.48,0,0,0-6.16-.27.78.78,0,0,1-.63.1.75.75,0,0,1-.48-.41c-.1-.2-2.45-4.92-8.45-2.83-1.54.53-2.46,1.33-2.73,2.36-.51,1.9,1.18,4.41,1.88,5.22a.79.79,0,0,1,.18.61.77.77,0,0,1-.34.53c-.22.14-5.22,3.47-3,7.19a3.72,3.72,0,0,0,2.44,2,3.14,3.14,0,0,0,2.26-.74.76.76,0,0,1,1,1.13A4.86,4.86,0,0,1,128.15,32.54Z"/><path id="_Tracé_78" data-name="&lt;Tracé&gt;" class="cls-5" d="M60.09,51A.76.76,0,0,1,60,49.5c.06,0,1.91-.35,2.65-3.8a2.11,2.11,0,0,0-.31-1.92c-.75-.86-2.48-.94-3.07-.9a.77.77,0,0,1-.11-1.53c.11,0,2.93-.19,4.33,1.43A3.53,3.53,0,0,1,64.14,46c-1,4.59-3.83,5-4,5Z"/></g></g></g></g></g></svg>