<svg xmlns="http://www.w3.org/2000/svg" viewBox="0 0 374.18 374.18"><defs><style>.cls-1{fill:#3f4040;}.cls-2{fill:#4e4f4f;}.cls-3{fill:#fff;}.cls-4{fill:#43b29d;}.cls-5{fill:#3c5a6b;}</style></defs><title>roller</title><g id="Calque_2" data-name="Calque 2"><g id="Layer_1" data-name="Layer 1"><g id="_Groupe_" data-name="&lt;Groupe&gt;"><g id="_Groupe_2" data-name="&lt;Groupe&gt;"><g id="_Groupe_3" data-name="&lt;Groupe&gt;"><circle id="_Tracé_" data-name="&lt;Tracé&gt;" class="cls-1" cx="187.09" cy="187.09" r="116.14" transform="translate(-77.5 187.09) rotate(-45)"/><path id="_Tracé_transparent_" data-name="&lt;Tracé transparent&gt;" class="cls-2" d="M187.09,281.1a94,94,0,1,1,94-94A94.12,94.12,0,0,1,187.09,281.1Zm0-186.49a92.48,92.48,0,1,0,92.48,92.48A92.59,92.59,0,0,0,187.09,94.61Z"/><path id="_Tracé_transparent_2" data-name="&lt;Tracé transparent&gt;" class="cls-2" d="M187.09,270.53a83.44,83.44,0,1,1,83.44-83.44A83.53,83.53,0,0,1,187.09,270.53Zm0-165.35A81.92,81.92,0,1,0,269,187.09,82,82,0,0,0,187.09,105.18Z"/><g id="_Groupe_4" data-name="&lt;Groupe&gt;"><path id="_Tracé_2" data-name="&lt;Tracé&gt;" class="cls-3" d="M84.51,236.47a1.15,1.15,0,0,1-1.05-.66,115,115,0,0,1-8.37-24.87A114.24,114.24,0,0,1,192.26,73.07a1.15,1.15,0,0,1-.11,2.3,112.59,112.59,0,0,0-28.79,2.36,111.84,111.84,0,0,0-86,132.72,112.48,112.48,0,0,0,8.2,24.38,1.16,1.16,0,0,1-.55,1.53A1.09,1.09,0,0,1,84.51,236.47Z"/><path id="_Tracé_3" data-name="&lt;Tracé&gt;" class="cls-3" d="M91.89,249.74a1.16,1.16,0,0,1-1-.53c-1.72-2.65-3.35-5.41-4.85-8.21a1.15,1.15,0,0,1,.47-1.56,1.17,1.17,0,0,1,1.57.47c1.46,2.74,3.06,5.45,4.75,8.05a1.16,1.16,0,0,1-1,1.78Z"/><path id="_Tracé_4" data-name="&lt;Tracé&gt;" class="cls-3" d="M208.32,77.51a1,1,0,0,1-.24,0c-3.3-.71-6.67-1.26-10-1.66a1.16,1.16,0,0,1,.28-2.3c3.41.41,6.85,1,10.22,1.7a1.15,1.15,0,0,1-.24,2.28Z"/></g><path id="_Tracé_transparent_3" data-name="&lt;Tracé transparent&gt;" class="cls-4" d="M187.09,0C83.76,0,0,83.76,0,187.09S83.76,374.18,187.09,374.18s187.09-83.76,187.09-187.09S290.42,0,187.09,0Zm78.18,90.23a44.8,44.8,0,1,1-16.4,61.19A44.81,44.81,0,0,1,265.27,90.23ZM108.91,284a44.8,44.8,0,1,1,16.4-61.2A44.79,44.79,0,0,1,108.91,284Zm16.4-132.54a44.8,44.8,0,1,1-16.4-61.19A44.79,44.79,0,0,1,125.31,151.42ZM187.09,348a44.8,44.8,0,1,1,44.8-44.8A44.8,44.8,0,0,1,187.09,348ZM174.77,187.09a12.33,12.33,0,1,1,12.32,12.33A12.31,12.31,0,0,1,174.77,187.09Zm12.32-71.34A44.8,44.8,0,1,1,231.89,71,44.79,44.79,0,0,1,187.09,115.75ZM265.27,284a44.8,44.8,0,1,1,61.2-16.4A44.8,44.8,0,0,1,265.27,284Z"/><g id="_Groupe_5" data-name="&lt;Groupe&gt;"><path id="_Tracé_5" data-name="&lt;Tracé&gt;" class="cls-3" d="M117.53,166.83a1.16,1.16,0,0,1-.87-.39,1.14,1.14,0,0,1,.11-1.62,51.93,51.93,0,0,0,5.69-5.94,1.16,1.16,0,1,1,1.86,1.38,53,53,0,0,1-6,6.29A1.15,1.15,0,0,1,117.53,166.83Z"/><path id="_Tracé_6" data-name="&lt;Tracé&gt;" class="cls-3" d="M127.66,155.05a1.19,1.19,0,0,1-.37-.06,1.16,1.16,0,0,1-.73-1.46c0-.06.11-.24.26-.55,3.86-7.65,14.73-34.37-7.31-57.07a1.15,1.15,0,1,1,1.65-1.61c23.11,23.79,11.75,51.73,7.72,59.72l-.15.3A1.15,1.15,0,0,1,127.66,155.05Z"/></g><g id="_Groupe_6" data-name="&lt;Groupe&gt;"><path id="_Tracé_7" data-name="&lt;Tracé&gt;" class="cls-3" d="M217.47,109.32a1.15,1.15,0,0,1-.76-2,51,51,0,0,0,5.69-5.94,1.16,1.16,0,0,1,1.86,1.38,52.2,52.2,0,0,1-6,6.29A1.17,1.17,0,0,1,217.47,109.32Z"/><path id="_Tracé_8" data-name="&lt;Tracé&gt;" class="cls-3" d="M216.51,35.48a1.16,1.16,0,0,1-.7-.24L213,33.09a1.16,1.16,0,0,1,1.41-1.83l2.81,2.15a1.14,1.14,0,0,1,.22,1.61A1.16,1.16,0,0,1,216.51,35.48Z"/><path id="_Tracé_9" data-name="&lt;Tracé&gt;" class="cls-3" d="M227.6,97.53a1.18,1.18,0,0,1-.37,0A1.16,1.16,0,0,1,226.5,96c0-.06.11-.25.26-.56,3.85-7.65,14.72-34.37-7.32-57.07a1.16,1.16,0,0,1,1.66-1.61c23.1,23.79,11.75,51.73,7.72,59.72l-.15.3A1.15,1.15,0,0,1,227.6,97.53Z"/></g><g id="_Groupe_7" data-name="&lt;Groupe&gt;"><path id="_Tracé_10" data-name="&lt;Tracé&gt;" class="cls-3" d="M117.09,282.83a1.19,1.19,0,0,1-.87-.39,1.15,1.15,0,0,1,.1-1.63,50.78,50.78,0,0,0,5.7-5.94,1.15,1.15,0,1,1,1.85,1.38,52.43,52.43,0,0,1-6,6.29A1.17,1.17,0,0,1,117.09,282.83Z"/><path id="_Tracé_11" data-name="&lt;Tracé&gt;" class="cls-3" d="M116.13,209a1.14,1.14,0,0,1-.7-.24l-2.82-2.15a1.16,1.16,0,0,1,1.4-1.84l2.82,2.15a1.16,1.16,0,0,1-.7,2.08Z"/><path id="_Tracé_12" data-name="&lt;Tracé&gt;" class="cls-3" d="M127.21,271a1.13,1.13,0,0,1-.36-.06,1.15,1.15,0,0,1-.73-1.46c0-.06.1-.24.25-.55,3.86-7.65,14.73-34.37-7.31-57.07a1.16,1.16,0,0,1,1.66-1.61c23.1,23.79,11.75,51.73,7.71,59.72a3,3,0,0,0-.14.3A1.16,1.16,0,0,1,127.21,271Z"/></g><g id="_Groupe_8" data-name="&lt;Groupe&gt;"><path id="_Tracé_13" data-name="&lt;Tracé&gt;" class="cls-3" d="M8.25,230.2a1.16,1.16,0,0,1-1.13-.89,186.06,186.06,0,0,1-4.84-42.22A185,185,0,0,1,234.42,8.4a1.15,1.15,0,1,1-.59,2.23,183,183,0,0,0-46.74-6C86.46,4.59,4.59,86.46,4.59,187.09a183.67,183.67,0,0,0,4.78,41.69,1.16,1.16,0,0,1-.86,1.39Z"/><path id="_Tracé_14" data-name="&lt;Tracé&gt;" class="cls-3" d="M15.48,253.8a1.15,1.15,0,0,1-1.08-.74c-1.83-4.79-3.48-9.72-4.9-14.65a1.16,1.16,0,0,1,2.22-.64c1.4,4.87,3,9.73,4.84,14.46a1.16,1.16,0,0,1-.67,1.49A1.24,1.24,0,0,1,15.48,253.8Z"/><path id="_Tracé_15" data-name="&lt;Tracé&gt;" class="cls-3" d="M259,19.54a1.28,1.28,0,0,1-.47-.1c-5-2.25-10.22-4.29-15.42-6.07a1.15,1.15,0,1,1,.75-2.18c5.27,1.8,10.52,3.86,15.61,6.14a1.16,1.16,0,0,1-.47,2.21Z"/></g><circle id="_Tracé_16" data-name="&lt;Tracé&gt;" class="cls-5" cx="187.09" cy="187.09" r="44.8" transform="translate(-27.21 31.91) rotate(-9.09)"/><path id="_Tracé_17" data-name="&lt;Tracé&gt;" class="cls-1" d="M174.77,187.09a12.33,12.33,0,1,1,12.32,12.33A12.31,12.31,0,0,1,174.77,187.09Z"/></g></g></g></g></g></svg>