<svg xmlns="http://www.w3.org/2000/svg" viewBox="0 0 155.96 319.37"><defs><style>.cls-1{fill:#df5a49;}.cls-2{fill:#f37363;}.cls-3{fill:#e3ac43;}.cls-4{fill:#efc94d;}.cls-5{fill:#fcdb6f;}.cls-6{fill:#fff;}.cls-7{fill:#c6d4dc;}</style></defs><title>soda</title><g id="Calque_2" data-name="Calque 2"><g id="Layer_1" data-name="Layer 1"><g id="_Groupe_" data-name="&lt;Groupe&gt;"><g id="_Groupe_2" data-name="&lt;Groupe&gt;"><g id="_Groupe_3" data-name="&lt;Groupe&gt;"><path id="_Tracé_" data-name="&lt;Tracé&gt;" class="cls-1" d="M5.44,98.53,28.57,305c0,8,22.62,14.42,50.51,14.42s50.51-6.46,50.51-14.42L152.72,98.53Z"/><path id="_Tracé_2" data-name="&lt;Tracé&gt;" class="cls-2" d="M110.89,98.53,100.35,305l-.67,13.17a171,171,0,0,1-38.45.32c0-.48-.5-5.38-1.24-13.49C56.35,265.57,45.71,150.52,40.9,98.53Z"/><path id="_Tracé_3" data-name="&lt;Tracé&gt;" class="cls-3" d="M3.8,99.92,2,113.56s15.24,16.71,79.64,16.71S156,112.82,156,112.82l-1.6-12.9s-16.13,11.64-72.88,12.29S3.8,99.92,3.8,99.92Z"/><ellipse id="_Tracé_4" data-name="&lt;Tracé&gt;" class="cls-4" cx="79.08" cy="99.92" rx="75.28" ry="16.89"/><path id="_Tracé_5" data-name="&lt;Tracé&gt;" class="cls-3" d="M79.08,95.73c-41.63,0-46.28-8.1-46.28-8.1v9.22c0,5.73,20.72,10.38,46.28,10.38s46.28-4.65,46.28-10.38V87.63S120.71,95.73,79.08,95.73Z"/><ellipse id="_Tracé_6" data-name="&lt;Tracé&gt;" class="cls-5" cx="79.08" cy="87.63" rx="46.28" ry="10.38"/><path id="_Tracé_7" data-name="&lt;Tracé&gt;" class="cls-3" d="M86.09,85.36c0,1.17-3,2.12-6.63,2.12s-6.64-1-6.64-2.12,3-2.13,6.64-2.13S86.09,84.18,86.09,85.36Z"/><path id="_Tracé_8" data-name="&lt;Tracé&gt;" class="cls-6" d="M36.41,90.7a1,1,0,0,1-.53-.14c-.23-.12-2.27-1.29-2.22-3.1,0-1.17.9-2.15,2.56-2.92a1.1,1.1,0,1,1,.93,2c-1,.49-1.27.88-1.28,1,0,.27.59.83,1.07,1.09a1.11,1.11,0,0,1-.53,2.08Z"/><path id="_Tracé_9" data-name="&lt;Tracé&gt;" class="cls-6" d="M39.91,85.17a1.12,1.12,0,0,1-1-.74A1.1,1.1,0,0,1,39.55,83c.6-.21,14.91-5.14,36.79-4.76a1.11,1.11,0,0,1,0,2.21h0c-21.45-.36-35.88,4.59-36,4.64A1.19,1.19,0,0,1,39.91,85.17Z"/><circle id="_Tracé_10" data-name="&lt;Tracé&gt;" class="cls-1" cx="78.94" cy="214.58" r="30.67"/><g id="_Groupe_4" data-name="&lt;Groupe&gt;"><path id="_Tracé_11" data-name="&lt;Tracé&gt;" class="cls-6" d="M85.35,209.19a3.54,3.54,0,0,0,1.88-1.1,3.8,3.8,0,0,0,1-1.93,1.71,1.71,0,0,0-.41-1.6,1.79,1.79,0,0,0-1.65-.39,3.59,3.59,0,0,0-1.88,1.11,3.81,3.81,0,0,0-1,1.92,1.73,1.73,0,0,0,.41,1.61A1.77,1.77,0,0,0,85.35,209.19Z"/><path id="_Tracé_transparent_" data-name="&lt;Tracé transparent&gt;" class="cls-6" d="M117.37,218.9a1.08,1.08,0,0,0-.77.15,3.79,3.79,0,0,0-1,.93,15.17,15.17,0,0,1-1.4,1.49,16.18,16.18,0,0,1-1.81,1.5,13.94,13.94,0,0,1-1.85,1.13,2.73,2.73,0,0,1-1.54.36c-.09,0-.22-.1-.38-.29a4.63,4.63,0,0,1-.5-.71,5.21,5.21,0,0,1-.43-.85,2.3,2.3,0,0,1-.18-.82c1.29-.69,2.5-1.4,3.62-2.12,1-.61,1.9-1.26,2.82-2a8.64,8.64,0,0,0,2-2,8.07,8.07,0,0,0,1.18-2.85,2.19,2.19,0,0,0-.36-1.83,1.93,1.93,0,0,0-1.75-.48,7.76,7.76,0,0,0-3,1.27,10.44,10.44,0,0,0-1.59,1.24c-.6.56-1.23,1.18-1.87,1.86s-1.31,1.37-2,2.08-1.26,1.36-1.79,1.94-1,1.07-1.33,1.45-.58.57-.64.57-.09-.08-.11-.23a2.77,2.77,0,0,1,0-.56,6.45,6.45,0,0,1,.12-.66A3,3,0,0,1,103,219l4.14-4.32q2.07-2.14,3.85-4.16c1.19-1.35,2.24-2.63,3.16-3.87a21.51,21.51,0,0,0,2.13-3.42,6,6,0,0,0,.7-2.76,2.37,2.37,0,0,0-1.08-1.92,2.73,2.73,0,0,0-3,0,13.86,13.86,0,0,0-3.6,2.92,33.49,33.49,0,0,0-3.62,4.84,42.84,42.84,0,0,0-3,5.81,61.32,61.32,0,0,0-2.37,6.56c-.14.47-.26.92-.38,1.35a10.35,10.35,0,0,1-1.27,1.32c-.51.45-1,.85-1.49,1.2a5.23,5.23,0,0,1-1.34.72c-.41.14-.67.11-.79-.07a1.44,1.44,0,0,1-.07-1.26,9.71,9.71,0,0,1,.82-1.84c.37-.67.83-1.39,1.35-2.14l1.59-2.26c.52-.76,1-1.48,1.44-2.18a10.93,10.93,0,0,0,1-1.85,1.52,1.52,0,0,0,.06-1.06,1.11,1.11,0,0,0-.56-.64,2,2,0,0,0-1-.16,3,3,0,0,0-1.11.32,13.9,13.9,0,0,0-2.38,1.68c-.86.72-1.72,1.5-2.58,2.35s-1.69,1.7-2.5,2.58-1.54,1.66-2.15,2.37-1.11,1.28-1.47,1.72-.55.62-.55.56a9.2,9.2,0,0,1,.48-1.33,6.29,6.29,0,0,1,.93-1.61l1.13-1.28c.51-.59,1-1.23,1.56-1.9s1-1.34,1.44-2a5.63,5.63,0,0,0,.8-1.45,2.27,2.27,0,0,0,.09-.86.46.46,0,0,0-.39-.43,1.91,1.91,0,0,0-1,.18,8.77,8.77,0,0,0-1.6,1,14.14,14.14,0,0,0-2.69,2.54,25.66,25.66,0,0,0-2.33,3.25c-.49.81-.91,1.62-1.31,2.43l0,.06a10.25,10.25,0,0,1-1.31,1.34,17.89,17.89,0,0,1-1.52,1.15,9,9,0,0,1-1.38.77,1.56,1.56,0,0,1-1,.18.85.85,0,0,1-.52-.72,4.48,4.48,0,0,1,0-1.45,9.77,9.77,0,0,1,.52-1.9,17.16,17.16,0,0,1,.92-2.08,13.26,13.26,0,0,1,.88-1.4c.35-.49.71-1,1.09-1.41s.75-.86,1.13-1.24.72-.7,1-1,.18-.33,0-.55a2,2,0,0,0-.77-.52A3.16,3.16,0,0,0,82,211a1.33,1.33,0,0,0-1,.34,20.38,20.38,0,0,0-2.76,3.41,27,27,0,0,0-2.06,3.78c-.23.53-.44,1-.62,1.56a11.14,11.14,0,0,1-1.28,1.31,16,16,0,0,1-1.58,1.25,7.78,7.78,0,0,1-1.42.79c-.43.16-.71.17-.86,0a1.19,1.19,0,0,1-.14-1,9.77,9.77,0,0,1,.54-1.81c.27-.69.61-1.44,1-2.24s.82-1.59,1.29-2.37.94-1.52,1.42-2.2a12.73,12.73,0,0,1,1.36-1.65c.09-.09.09-.22,0-.38a1.72,1.72,0,0,0-.39-.48,2,2,0,0,0-.52-.36.57.57,0,0,0-.4-.09c-.18.09-.43.2-.73.32a4.33,4.33,0,0,1-.92.25,4,4,0,0,1-.91,0,1,1,0,0,1-.7-.36,9,9,0,0,0,.54-1.23,3.57,3.57,0,0,0,.23-1.19,1.94,1.94,0,0,0-.27-1,1.67,1.67,0,0,0-.95-.68,2,2,0,0,0-1.92.29,4.38,4.38,0,0,0-1.5,1.72,4,4,0,0,0-.38,2.24A2.41,2.41,0,0,0,68.5,213c-.33.69-.75,1.45-1.24,2.3a1.61,1.61,0,0,0-.52-.09c-.55,0-1,0-1.36,0s-.68,0-.95,0a29.23,29.23,0,0,0,2-4.79,14.7,14.7,0,0,0,.74-4.95A9.46,9.46,0,0,0,66,201a8.44,8.44,0,0,0-3.71-3.35,13.72,13.72,0,0,0-5.6-1.22,34.58,34.58,0,0,0-6.56.45,20.46,20.46,0,0,0-6.38,2.2,15.58,15.58,0,0,0-4.41,3.46,6.59,6.59,0,0,0-1.72,3.84,3.83,3.83,0,0,0,1.74,3.35,5.48,5.48,0,0,1,1-2.62,10.88,10.88,0,0,1,2.24-2.45,16.78,16.78,0,0,1,3.21-2,20.84,20.84,0,0,1,3.87-1.45c-.81,1.36-1.76,3-2.83,4.84s-2.13,4-3.19,6.31-2,4.91-3,7.71a61.58,61.58,0,0,0-2.29,9.09c-.12.73-.06,1.19.18,1.41a.81.81,0,0,0,1,0,4,4,0,0,0,1.25-1.15,7.15,7.15,0,0,0,1.06-2.18q.9-3,2.24-6.37T47,214q1.7-3.45,3.71-6.83A74.92,74.92,0,0,1,55,200.8l.18-.22a10.69,10.69,0,0,1,1.27.07l1.27.15A5.06,5.06,0,0,1,61.31,203a7.7,7.7,0,0,1,1.15,4,14.31,14.31,0,0,1-.7,4.72,16.92,16.92,0,0,1-2,4.37,32.63,32.63,0,0,0-6.49,2.28,28.06,28.06,0,0,0-5.32,3.21,14,14,0,0,0-3.32,3.51,3.41,3.41,0,0,0-.52,3.21,2,2,0,0,0,1.65,1.31,6.49,6.49,0,0,0,2.94-.27,18.46,18.46,0,0,0,3.71-1.63,27.6,27.6,0,0,0,4-2.76,33.57,33.57,0,0,0,3.82-3.66,28.3,28.3,0,0,0,3.19-4.3,14.68,14.68,0,0,1,1.56-.11l1.4,0A29.3,29.3,0,0,1,64,220a1.93,1.93,0,0,0-.49,1,.63.63,0,0,0,.2.63.79.79,0,0,0,.75,0,3.37,3.37,0,0,0,1.17-1.07,32.12,32.12,0,0,0,2.49-3.61c.75-1.27,1.39-2.4,1.9-3.4a7.82,7.82,0,0,0,1.22.18,5.2,5.2,0,0,0,1.18,0,32.06,32.06,0,0,0-4.19,5.61,21.11,21.11,0,0,0-2.06,4.7,6.24,6.24,0,0,0-.18,3.26,1.43,1.43,0,0,0,1.41,1.22,5.09,5.09,0,0,0,2.64-1,22,22,0,0,0,3-2.29c.57-.5,1.09-1,1.59-1.52a14.29,14.29,0,0,0-.21,1.7,5.78,5.78,0,0,0,.25,2.24,1.11,1.11,0,0,0,1.09.84,5.09,5.09,0,0,0,2.64-1,23.57,23.57,0,0,0,3-2.29c.36-.32.7-.65,1-1h0a7.08,7.08,0,0,0-.21,2.49,1.34,1.34,0,0,0,.91,1.24c.24.06.64-.16,1.2-.68a12.88,12.88,0,0,0,1.78-2.12c.67-1,1.42-2,2.27-3s1.68-2,2.51-2.82a22.54,22.54,0,0,1,2.42-2.2,6.13,6.13,0,0,1,2-1.13,5.76,5.76,0,0,0-1.13,1.24c-.45.62-.92,1.34-1.4,2.15s-.94,1.69-1.36,2.6a14.63,14.63,0,0,0-.93,2.63,6.64,6.64,0,0,0-.18,2.19,1.44,1.44,0,0,0,.89,1.27,2,2,0,0,0,1.42-.11,11.55,11.55,0,0,0,2-1,20.34,20.34,0,0,0,2.14-1.59c.73-.6,1.41-1.21,2.06-1.83l.38-.37c0,.26-.1.52-.13.76a11.6,11.6,0,0,0-.09,3.48c.15.84.48,1.27,1,1.27a1.2,1.2,0,0,0,.75-.43,12.4,12.4,0,0,0,1-1.16c.37-.48.78-1,1.22-1.69s.89-1.34,1.38-2.06c.09.48.21,1,.36,1.6a8.62,8.62,0,0,0,.61,1.68,5,5,0,0,0,.9,1.31,1.65,1.65,0,0,0,1.2.52,5.09,5.09,0,0,0,2.65-1,22,22,0,0,0,3-2.29,34.06,34.06,0,0,0,2.62-2.62,15.17,15.17,0,0,0,1.63-2,2.41,2.41,0,0,0,.46-1.13C117.67,219.12,117.57,219,117.37,218.9Zm-13.18-4.5c.24-.62.51-1.26.81-1.93.63-1.41,1.29-2.75,2-4a35.74,35.74,0,0,1,2-3.3,15.8,15.8,0,0,1,1.92-2.33,3.87,3.87,0,0,1,1.74-1.09,6.55,6.55,0,0,1-.74,3,24.89,24.89,0,0,1-2.11,3.57q-1.31,1.91-3,3.94t-3.28,4A19,19,0,0,1,104.19,214.4Zm-48.26,7.21a22.61,22.61,0,0,1-2.94,2.8,8.41,8.41,0,0,1-2.56,1.45,1.45,1.45,0,0,1-1.7-.31c-.15-.19-.07-.58.23-1.2a8.33,8.33,0,0,1,1.67-2.13,17.46,17.46,0,0,1,3.24-2.4,20.07,20.07,0,0,1,5-2A31.58,31.58,0,0,1,55.93,221.61Zm50.16-1a35.67,35.67,0,0,1,3.32-4.09,6,6,0,0,1,3.28-2c.18.37.07.8-.34,1.32a11.32,11.32,0,0,1-1.67,1.62c-.71.58-1.48,1.14-2.31,1.7S106.78,220.24,106.09,220.66Z"/></g><path id="_Tracé_12" data-name="&lt;Tracé&gt;" class="cls-6" d="M31.15,306.76a1.1,1.1,0,0,1-1.09-1L11,132a1.1,1.1,0,1,1,2.19-.24L32.26,305.53a1.12,1.12,0,0,1-1,1.22Z"/><path id="_Tracé_13" data-name="&lt;Tracé&gt;" class="cls-6" d="M11.44,128.2a1.11,1.11,0,0,1-1.1-1l-.5-4.56a1.11,1.11,0,0,1,2.2-.24l.5,4.56a1.1,1.1,0,0,1-1,1.22Z"/><path id="_Tracé_14" data-name="&lt;Tracé&gt;" class="cls-6" d="M9.89,105.26a1.09,1.09,0,0,1-.49-.11,32.35,32.35,0,0,1-4.49-3,1.11,1.11,0,1,1,1.37-1.74,29.27,29.27,0,0,0,4.11,2.71,1.1,1.1,0,0,1-.5,2.09Z"/><path id="_Tracé_15" data-name="&lt;Tracé&gt;" class="cls-6" d="M80.68,116.51c-48.3,0-67.17-8.83-67.95-9.21a1.09,1.09,0,0,1-.51-1.47,1.1,1.1,0,0,1,1.47-.52c.19.09,19.3,9,67,9,19,0,55.33-2.72,71-12.91a1.11,1.11,0,0,1,1.21,1.85C136.78,113.72,99.92,116.51,80.68,116.51Z"/><path id="_Tracé_16" data-name="&lt;Tracé&gt;" class="cls-7" d="M75.75,85.83l-15-76.56L5.42,38.65A3.69,3.69,0,1,1,2,32.14L61.69.43A3.68,3.68,0,0,1,67,3L83,84.6c.19,1.53-1.94,2.17-3.25,2.34S76.19,87,75.75,85.83Z"/><path id="_Tracé_17" data-name="&lt;Tracé&gt;" class="cls-6" d="M11.06,96.23a1.11,1.11,0,0,1-.5-2.09,71.57,71.57,0,0,1,20-6.26,1.11,1.11,0,0,1,.31,2.2,71.19,71.19,0,0,0-19.32,6A1.11,1.11,0,0,1,11.06,96.23Z"/><path id="_Tracé_18" data-name="&lt;Tracé&gt;" class="cls-6" d="M79.92,97.13A177.79,177.79,0,0,1,41,93a1.1,1.1,0,1,1,.53-2.14C42,91,80.83,100.49,119,90a1.11,1.11,0,0,1,.59,2.14A150.74,150.74,0,0,1,79.92,97.13Z"/><path id="_Tracé_19" data-name="&lt;Tracé&gt;" class="cls-6" d="M2.71,35.89a.74.74,0,0,1-.35-1.39L58,4.64a.73.73,0,0,1,1,.3.74.74,0,0,1-.3,1L3.05,35.8A.72.72,0,0,1,2.71,35.89Z"/><path id="_Tracé_20" data-name="&lt;Tracé&gt;" class="cls-6" d="M64.4,5.29a.73.73,0,0,1-.7-.52c-.16-.49-.37-.81-.58-.86s-.88.28-1.15.55a.74.74,0,0,1-1,0,.73.73,0,0,1,0-1,3,3,0,0,1,2.53-.93A2.41,2.41,0,0,1,65.1,4.32a.73.73,0,0,1-.48.93A.85.85,0,0,1,64.4,5.29Z"/><path id="_Tracé_21" data-name="&lt;Tracé&gt;" class="cls-6" d="M80,84.62a.75.75,0,0,1-.73-.6L64.6,9.36a.72.72,0,0,1,.58-.86.73.73,0,0,1,.87.58L80.7,83.74a.72.72,0,0,1-.58.86Z"/></g></g></g></g></g></svg>