<svg xmlns="http://www.w3.org/2000/svg" viewBox="0 0 217.66 217.66"><defs><style>.cls-1{fill:#efc94d;}.cls-2{fill:#d97234;}.cls-3{fill:#e27a3e;}.cls-4{fill:#fff;}</style></defs><title>ticket</title><g id="Calque_2" data-name="Calque 2"><g id="Layer_1" data-name="Layer 1"><g id="_Groupe_" data-name="&lt;Groupe&gt;"><g id="_Groupe_2" data-name="&lt;Groupe&gt;"><g id="_Groupe_3" data-name="&lt;Groupe&gt;"><path id="_Tracé_" data-name="&lt;Tracé&gt;" class="cls-1" d="M200.2,53.18a9.92,9.92,0,0,1-.61-13.36l-3.89-3.89a9.92,9.92,0,0,1-14-14l-3.89-3.89a9.92,9.92,0,0,1-14-14L159.77,0a21.65,21.65,0,0,1-30.61,0L0,129.16a21.65,21.65,0,0,1,0,30.61l4.1,4.1a9.92,9.92,0,0,1,14,14L22,181.73a9.92,9.92,0,0,1,14,14l3.89,3.89a9.92,9.92,0,0,1,14,14l4.1,4.1a21.64,21.64,0,0,1,30.62,0L217.66,88.5a21.64,21.64,0,0,1,0-30.62l-4.1-4.1A9.91,9.91,0,0,1,200.2,53.18Z"/><g id="_Groupe_4" data-name="&lt;Groupe&gt;"><path id="_Tracé_transparent_" data-name="&lt;Tracé transparent&gt;" class="cls-2" d="M76.76,142.56l2.13,2.13q5.65,5.66.32,11l-2.87,2.88q-5.32,5.33-11-.33l-22-22q-5.66-5.64-.33-11L46,122.42q5.33-5.33,11,.32l3.75,3.75-4.44,4.45-3.43-3.43q-1.95-2-3.94,0l-.88.88q-1.76,1.76.19,3.7l21.3,21.3q2,2,3.7.19l1.12-1.11c1.17-1.18,1.11-2.41-.19-3.71L72.31,147Z"/><path id="_Tracé_transparent_2" data-name="&lt;Tracé transparent&gt;" class="cls-2" d="M88,146.87,54.76,113.62l4.45-4.45,33.25,33.25Z"/><path id="_Tracé_transparent_3" data-name="&lt;Tracé transparent&gt;" class="cls-2" d="M88.66,111.86,72.59,95.79,77,91.34l33.24,33.25L105.84,129l-6.62-6.62L79.31,112l21.76,21.77-4.45,4.44L63.38,105l4.44-4.45Z"/><path id="_Tracé_transparent_4" data-name="&lt;Tracé transparent&gt;" class="cls-2" d="M114.45,120.43,81.2,87.18l11-11,4,4-6.57,6.58L99.77,96.85,105.61,91l4,4-5.84,5.83L114.87,112l6.58-6.57,4,4Z"/><path id="_Tracé_transparent_5" data-name="&lt;Tracé transparent&gt;" class="cls-2" d="M124,83.47,108.57,59.81l4.91-4.91,33.25,33.25-4.45,4.45L121,70.37l12.41,19.08L130,92.87,110.89,80.46l22.22,21.3-4.44,4.45L95.42,73l4.91-4.91Z"/><path id="_Tracé_transparent_6" data-name="&lt;Tracé transparent&gt;" class="cls-2" d="M155.11,79.77l-4.45,4.44L123.11,56.66q-5.7-5.7-.37-11l3.34-3.33q5.31-5.33,11,.37l27.55,27.55-4.45,4.44L148,62.5l-5.09,5.09ZM144,58.47,132.93,47.4a2.43,2.43,0,0,0-3.89,0l-1.21,1.2a2.43,2.43,0,0,0,0,3.89L138.9,63.56Z"/></g><g id="_Groupe_5" data-name="&lt;Groupe&gt;"><polygon id="_Tracé_2" data-name="&lt;Tracé&gt;" class="cls-2" points="82.86 161.91 90.26 165.69 96.14 159.81 94.84 168.02 102.24 171.79 94.03 173.09 92.73 181.3 88.96 173.9 80.75 175.19 86.63 169.32 82.86 161.91"/><polygon id="_Tracé_3" data-name="&lt;Tracé&gt;" class="cls-2" points="102.62 142.15 110.03 145.92 115.9 140.04 114.6 148.25 122.01 152.03 113.8 153.33 112.5 161.53 108.72 154.13 100.52 155.43 106.39 149.55 102.62 142.15"/><polygon id="_Tracé_4" data-name="&lt;Tracé&gt;" class="cls-2" points="122.38 122.38 129.79 126.16 135.67 120.28 134.37 128.49 141.77 132.26 133.56 133.56 132.26 141.77 128.49 134.37 120.28 135.67 126.16 129.79 122.38 122.38"/><polygon id="_Tracé_5" data-name="&lt;Tracé&gt;" class="cls-2" points="142.15 102.62 149.55 106.39 155.43 100.52 154.13 108.72 161.53 112.5 153.33 113.8 152.03 122.01 148.25 114.6 140.04 115.9 145.92 110.03 142.15 102.62"/><polygon id="_Tracé_6" data-name="&lt;Tracé&gt;" class="cls-2" points="161.91 82.86 169.32 86.63 175.19 80.75 173.89 88.96 181.3 92.73 173.09 94.03 171.79 102.24 168.02 94.84 159.81 96.14 165.69 90.26 161.91 82.86"/></g><path id="_Tracé_transparent_7" data-name="&lt;Tracé transparent&gt;" class="cls-3" d="M87.2,201.58a.82.82,0,0,1-.58-.24,12.86,12.86,0,0,0-18.17,0,.83.83,0,0,1-1.17,0l-51-51a.82.82,0,0,1,0-1.17,12.86,12.86,0,0,0,0-18.17.82.82,0,0,1,0-1.17L129.87,16.32a.82.82,0,0,1,1.17,0,12.86,12.86,0,0,0,18.17,0,.82.82,0,0,1,1.17,0l51,51a.83.83,0,0,1,0,1.17,12.86,12.86,0,0,0,0,18.17.83.83,0,0,1,0,1.17L87.79,201.34A.82.82,0,0,1,87.2,201.58Zm-69.14-51.8L67.88,199.6a14.52,14.52,0,0,1,19.31,0L199.6,87.19a14.51,14.51,0,0,1,0-19.31L149.78,18.06a14.54,14.54,0,0,1-19.31,0L18.06,130.47a14.51,14.51,0,0,1,0,19.31Z"/><path id="_Tracé_7" data-name="&lt;Tracé&gt;" class="cls-4" d="M14.19,119.42a.77.77,0,0,1-.54-1.31L127.86,3.9A.76.76,0,1,1,128.94,5L14.73,119.19A.78.78,0,0,1,14.19,119.42Z"/><path id="_Tracé_8" data-name="&lt;Tracé&gt;" class="cls-4" d="M4.57,129A.77.77,0,0,1,4,127.73l5.42-5.43a.77.77,0,0,1,1.08,1.09l-5.42,5.42A.78.78,0,0,1,4.57,129Z"/><path id="_Tracé_9" data-name="&lt;Tracé&gt;" class="cls-4" d="M161.7,5a.79.79,0,0,1-.54-.22l-2.22-2.22A.77.77,0,0,1,160,1.49l2.22,2.22a.77.77,0,0,1,0,1.09A.79.79,0,0,1,161.7,5Z"/><path id="_Tracé_10" data-name="&lt;Tracé&gt;" class="cls-4" d="M179.71,23a.74.74,0,0,1-.53-.22l-2.07-2a.75.75,0,0,1,0-1.08.77.77,0,0,1,1.08,0l2.07,2a.76.76,0,0,1,0,1.08A.78.78,0,0,1,179.71,23Z"/><path id="_Tracé_11" data-name="&lt;Tracé&gt;" class="cls-4" d="M197.53,40.85a.79.79,0,0,1-.54-.22l-2.22-2.22a.77.77,0,1,1,1.08-1.09l2.22,2.22a.77.77,0,0,1,0,1.09A.81.81,0,0,1,197.53,40.85Z"/><path id="_Tracé_12" data-name="&lt;Tracé&gt;" class="cls-4" d="M215.35,58.67a.76.76,0,0,1-.54-.22l-2.22-2.22a.76.76,0,0,1,1.08-1.08l2.22,2.22a.76.76,0,0,1,0,1.08A.75.75,0,0,1,215.35,58.67Z"/><path id="_Tracé_13" data-name="&lt;Tracé&gt;" class="cls-4" d="M134.94,7a.75.75,0,0,1-.21,0,9.2,9.2,0,0,1-3.25-1.64.77.77,0,0,1-.09-1.08.76.76,0,0,1,1.08-.08,7.65,7.65,0,0,0,2.67,1.32.77.77,0,0,1,.53.94A.76.76,0,0,1,134.94,7Z"/><path id="_Tracé_14" data-name="&lt;Tracé&gt;" class="cls-4" d="M143.42,8.69a31.64,31.64,0,0,1-5-.37.77.77,0,0,1,.27-1.51c.11,0,11.26,1.92,18.13-3.62a.76.76,0,0,1,1.08.11.77.77,0,0,1-.12,1.08C153.39,8,147.53,8.69,143.42,8.69Z"/><path id="_Tracé_15" data-name="&lt;Tracé&gt;" class="cls-4" d="M171.26,22.7a11.72,11.72,0,0,1-6.65-2,.76.76,0,0,1-.15-1.07.77.77,0,0,1,1.07-.15,10.56,10.56,0,0,0,8.55,1.34.76.76,0,0,1,.93.54.75.75,0,0,1-.53.94A12.22,12.22,0,0,1,171.26,22.7Z"/><path id="_Tracé_16" data-name="&lt;Tracé&gt;" class="cls-4" d="M189.39,40.71a11.8,11.8,0,0,1-6.65-2,.76.76,0,1,1,.92-1.22,10.59,10.59,0,0,0,8.67,1.3.77.77,0,0,1,.42,1.48A12.18,12.18,0,0,1,189.39,40.71Z"/><path id="_Tracé_17" data-name="&lt;Tracé&gt;" class="cls-4" d="M207,58.6a11.61,11.61,0,0,1-6.65-2,.76.76,0,0,1-.15-1.07.77.77,0,0,1,1.07-.15,10.54,10.54,0,0,0,8.51,1.35.77.77,0,0,1,.4,1.48A12.35,12.35,0,0,1,207,58.6Z"/></g></g></g></g></g></svg>